<?xml version="1.0" encoding="utf-8"?>
<!-- Generator: Adobe Illustrator 28.3.0, SVG Export Plug-In . SVG Version: 6.00 Build 0)  -->
<svg version="1.1" id="Layer_1" xmlns="http://www.w3.org/2000/svg" xmlns:xlink="http://www.w3.org/1999/xlink" x="0px" y="0px"
	 viewBox="0 0 1409.36 583.35" style="enable-background:new 0 0 1409.36 583.35;" xml:space="preserve">
<style type="text/css">
	.st0{display:none;fill:#FFDD00;}
	.st1{fill-rule:evenodd;clip-rule:evenodd;fill:#FFFFFF;}
	.st2{fill:#FFFFFF;stroke:#000000;stroke-width:10;stroke-miterlimit:10;}
	.st3{display:none;}
	.st4{display:inline;}
	.st5{fill:#231F20;}
</style>
<g id="Layer_2">
	<rect x="1996.72" y="-346.24" class="st0" width="1772.51" height="1275.83"/>
	<rect x="-186.1" y="-346.24" class="st0" width="1772.51" height="1275.83"/>
	<g id="Layer_3">
	</g>
	<g>
		<g>
			<g>
				<g>
					<path d="M179.21,292.24L179.21,292.24L179.21,292.24L179.21,292.24L179.21,292.24c0.02,0,0.04,0,0.06,0c0,0,0.01,0,0.01,0h0
						c0,0,0,0,0,0c0.01,0,0.01,0,0.02,0c6.53-0.01,12.2-0.76,17.02-2.27c4.84-1.51,8.87-3.76,12.08-6.74
						c3.63-3.3,6.37-7.4,8.21-12.29c1.84-4.89,2.76-10.64,2.76-17.25c0-4.93-0.4-9.85-1.19-14.74c-0.79-4.89-1.91-10.03-3.35-15.43
						h-22.98c0.51,2.79,1.12,6.13,1.82,10.02c0.7,3.89,1.3,7.61,1.82,11.17c0.51,3.56,0.77,6.3,0.77,8.21
						c0,2.51-0.66,4.41-1.99,5.69c-1.33,1.28-3.1,2.14-5.31,2.58c-2.21,0.44-4.67,0.66-7.37,0.66c-4.42,0-7.67-0.44-9.74-1.33
						c-2.07-0.88-3.4-2.4-3.98-4.54c-0.58-2.14-0.87-5.12-0.87-8.94v-39.04h-23.12v7.32c-6.79,1.93-12.61,4.01-17.43,6.23
						c-6.17,2.84-11.02,5.9-14.56,9.18c-3.54,3.28-6.04,6.77-7.51,10.47c-1.47,3.7-2.2,7.62-2.2,11.77c0,5.12,1.07,9.73,3.21,13.83
						c2.14,4.1,5.37,7.33,9.67,9.71c4.31,2.38,9.72,3.56,16.24,3.56c4.19,0,8.21-0.83,12.05-2.48c1.28-0.55,2.51-1.19,3.71-1.9
						c1.33,3.31,3.07,6.04,5.23,8.18C157.9,289.45,166.87,292.23,179.21,292.24z M140.87,253.79c-2.65,0.77-5.52,1.15-8.59,1.15
						c-2.84,0-5.03-0.46-6.57-1.4c-1.54-0.93-2.3-2.19-2.3-3.77c0-1.63,0.72-3.12,2.17-4.47c1.44-1.35,3.4-2.59,5.87-3.74
						c2.47-1.14,5.28-2.23,8.45-3.28c1.3-0.43,2.64-0.86,3.98-1.28v15.69C142.92,253.11,141.93,253.48,140.87,253.79z"/>
					<path d="M429.03,247.33c0,3.82-0.45,6.78-1.36,8.87c-0.91,2.09-2.41,3.56-4.5,4.4s-4.91,1.26-8.45,1.26
						c-4.38,0-8.86-0.04-13.44-0.11c-2.56-0.04-5.01-0.1-7.37-0.18c1.18-0.98,2.24-1.93,3.15-2.85c3.31-3.35,5.47-6.59,6.5-9.71
						c1.02-3.12,1.54-6.38,1.54-9.78c0-6.24-2.58-11.12-7.75-14.63c-5.17-3.52-12.8-5.27-22.91-5.27c-6.29,0-12.57,0.42-18.86,1.26
						s-12.85,2.14-19.7,3.91v23.61l12.68,13.21c-0.39,0.03-0.76,0.06-1.16,0.09c-2.33,0.16-5.03,0.28-8.1,0.35
						c-3.07,0.07-6.8,0.11-11.17,0.11h-1.47c-2.89,0-5.4-0.3-7.54-0.91c-2.14-0.6-3.8-1.83-4.96-3.67c-1.16-1.84-1.75-4.6-1.75-8.28
						v-16.34h-23.12V249c0,3.68-0.58,6.44-1.75,8.28c-1.16,1.84-2.82,3.06-4.96,3.67c-2.14,0.61-4.68,0.91-7.61,0.91c0,0,0,0,0,0v0
						c-4.33,0-7.51-0.44-9.53-1.33s-3.33-2.4-3.91-4.54c-0.58-2.14-0.87-5.12-0.87-8.94v-65.37h-23.47v73.68
						c0,13.46,2.82,22.97,8.45,28.53c5.63,5.56,14.62,8.35,26.96,8.35c0,0,0,0,0,0v0c0.02,0,0.04,0,0.06,0c0,0,0.01,0,0.01,0
						c0.01,0,0.01,0,0.02,0c5.6-0.01,10.43-0.68,14.51-2.02c4.1-1.35,7.36-3.83,9.78-7.44c0.73-1.09,1.37-2.34,1.93-3.71
						c0.62,1.2,1.31,2.3,2.08,3.29c2.86,3.66,6.36,6.22,10.48,7.68c4.1,1.46,8.37,2.19,12.82,2.2l0,0h1.4
						c7.4,0,13.75-0.3,19.03-0.91c5.28-0.61,9.98-1.64,14.07-3.11c4-1.43,7.88-3.37,11.66-5.8c1.73,1.23,3.52,2.34,5.38,3.32
						c4.24,2.24,9.29,3.88,15.16,4.92c5.87,1.05,12.99,1.57,21.37,1.57c0.02,0,0.04,0,0.06,0c0,0,0.01,0,0.01,0c0,0,0.01,0,0.01,0
						c5.51-0.01,10.34-0.54,14.51-1.61c4.19-1.07,7.8-2.68,10.83-4.82c5.12-3.58,8.83-8.67,11.14-15.26s3.46-14.72,3.46-24.41
						v-64.46h-23.33V247.33z M373.3,243.9c3.17,0,5.66,0.33,7.47,0.98c1.82,0.65,2.72,1.68,2.72,3.07c0,1.07-0.44,2.13-1.33,3.18
						c-0.88,1.05-2.3,2.23-4.26,3.56c-1.48,1-3.32,2.2-5.51,3.59l-14.89-13.24c1.62-0.25,3.29-0.47,5.03-0.65
						C365.71,244.07,369.29,243.9,373.3,243.9z"/>
					<polygon points="471.28,292.24 480.22,292.24 494.75,292.24 494.75,181.68 471.28,181.68 					"/>
					<path d="M758.68,261.43c-3.26,0.05-6.47-0.16-9.64-0.63c-3.17-0.46-5.79-1.34-7.86-2.62c-2.07-1.28-3.11-3.11-3.11-5.48
						c0-2.24,0.78-4.13,2.34-5.69c1.56-1.56,3.71-2.76,6.46-3.6c2.75-0.84,5.84-1.26,9.29-1.26c3.21,0,6.6,0.3,10.16,0.91
						c3.56,0.61,6.67,1.33,9.32,2.17l0.7-23.75c-2.65-1.91-6.05-3.46-10.2-4.64c-4.14-1.19-8.45-1.78-12.92-1.78
						c-6.56,0-12.64,1.27-18.23,3.81c-5.59,2.54-10.07,6.17-13.44,10.89c-3.38,4.73-5.06,10.35-5.06,16.87
						c0,3.26,0.49,6.16,1.47,8.7c0.98,2.54,2.22,4.69,3.74,6.46c0.02,0.02,0.04,0.05,0.06,0.07c-1.43,0-2.77,0-4.01,0
						c-3.68,0-7.45,0-11.31,0c0,0,0,0,0,0c0,0,0,0,0,0c-2.89,0-5.4-0.3-7.54-0.91c-2.14-0.6-3.8-1.83-4.96-3.67
						c-1.16-1.84-1.75-4.6-1.75-8.28v-16.34h-23.12V249c0,3.68-0.58,6.44-1.75,8.28c-1.16,1.84-2.82,3.06-4.96,3.67
						c-2.14,0.61-4.68,0.91-7.61,0.91h-11.06c-0.24-4.95-0.91-9.49-2.03-13.62c-1.47-5.4-3.54-9.99-6.22-13.76
						c-2.68-3.77-5.82-6.66-9.43-8.66c-3.61-2-7.51-3-11.7-3c-6.19,0-11.77,1.65-16.73,4.96c-4.96,3.31-8.87,7.73-11.73,13.27
						c-2.86,5.54-4.29,11.66-4.29,18.37c0,8.76,2.48,15.48,7.44,20.19s11.26,7.05,18.89,7.05h17.85c-0.06,0.23-0.11,0.47-0.18,0.7
						c-0.37,1.3-2.1,2.68-5.17,4.12c-3.07,1.44-7.11,2.65-12.12,3.63c-5.01,0.98-10.63,1.47-16.87,1.47
						c-10.57,0-18.25-1.93-23.05-5.8c-4.8-3.87-7.19-9.78-7.19-17.74c0-3.68,0.36-7.6,1.08-11.77c0.72-4.17,1.76-8.65,3.11-13.44
						h-21.65c-1.58,4.66-2.93,9.73-4.05,15.22c-1.12,5.49-1.68,10.87-1.68,16.13c0,13.92,4.16,24.94,12.47,33.07
						c8.31,8.12,20.45,12.19,36.42,12.19c9.54,0,17.8-1.05,24.76-3.14c6.96-2.09,12.77-5.31,17.42-9.64
						c5.14-4.87,8.92-11.35,11.37-19.42h11.95c0.02,0,0.04,0,0.06,0c0,0,0.01,0,0.01,0c0.01,0,0.01,0,0.02,0
						c5.6-0.01,10.43-0.68,14.51-2.02c4.1-1.35,7.36-3.83,9.78-7.44c0.73-1.09,1.37-2.34,1.93-3.71c0.62,1.2,1.31,2.3,2.08,3.29
						c2.86,3.66,6.36,6.22,10.48,7.68c4.1,1.46,8.37,2.19,12.82,2.2l0,0c4.7,0,9.25,0,13.65,0s8.74-0.01,13.02-0.04
						c4.28-0.02,8.54-0.04,12.78-0.04c6.66-0.04,13.47-0.35,20.43-0.91c6.96-0.56,13.89-1.37,20.78-2.44v-29.05
						c-4.42,0.47-8.78,0.85-13.06,1.15C767.38,261.22,763.05,261.39,758.68,261.43z M601.92,259.62c-1.47-0.88-2.2-2.05-2.2-3.49
						c0-1.3,0.45-2.63,1.36-3.98c0.91-1.35,2.15-2.48,3.74-3.39c1.58-0.91,3.38-1.36,5.38-1.36c1.58,0,3.1,0.33,4.54,0.98
						c1.44,0.65,2.77,1.58,3.98,2.79c1.21,1.21,2.28,2.67,3.21,4.37c0.9,1.64,1.62,3.45,2.17,5.41h-15.23
						C605.7,260.95,603.39,260.5,601.92,259.62z"/>
					<path d="M604.92,186.44L604.92,186.44c-5.54-5.66-14.63-5.68-20.2-0.05l0,0c-5.46,5.51-5.47,14.39-0.03,19.91v0
						c5.57,5.66,14.71,5.64,20.25-0.05l0,0C610.32,200.73,610.31,191.94,604.92,186.44z"/>
					<path d="M633.27,186.44L633.27,186.44c-5.54-5.66-14.63-5.68-20.2-0.05l0,0c-5.46,5.51-5.47,14.39-0.03,19.91l0,0
						c5.57,5.66,14.71,5.64,20.25-0.05l0,0C638.66,200.73,638.65,191.94,633.27,186.44z"/>
					<path d="M142.39,177.11L142.39,177.11c-5.54-5.66-14.63-5.68-20.2-0.05l0,0c-5.46,5.51-5.47,14.39-0.03,19.91l0,0
						c5.57,5.66,14.71,5.64,20.25-0.05l0,0C147.78,191.41,147.77,182.61,142.39,177.11z"/>
					<path d="M170.73,177.11L170.73,177.11c-5.54-5.66-14.63-5.68-20.2-0.05l0,0c-5.46,5.51-5.47,14.39-0.03,19.91l0,0
						c5.57,5.66,14.71,5.64,20.25-0.05l0,0C176.13,191.41,176.12,182.61,170.73,177.11z"/>
					<path d="M177.02,302.85L177.02,302.85c-5.54-5.66-14.63-5.68-20.2-0.05l0,0c-5.46,5.51-5.47,14.39-0.03,19.91l0,0
						c5.57,5.66,14.71,5.64,20.25-0.05l0,0C182.42,317.15,182.41,308.35,177.02,302.85z"/>
					<path d="M205.37,302.85L205.37,302.85c-5.54-5.66-14.63-5.68-20.2-0.05l0,0c-5.46,5.51-5.47,14.39-0.03,19.91l0,0
						c5.57,5.66,14.71,5.64,20.25-0.05l0,0C210.77,317.15,210.75,308.35,205.37,302.85z"/>
					<path d="M307.39,192.93L307.39,192.93c-5.54-5.66-14.63-5.68-20.2-0.05l0,0c-5.46,5.51-5.47,14.39-0.03,19.91v0
						c5.57,5.66,14.71,5.64,20.25-0.05l0,0C312.79,207.22,312.78,198.43,307.39,192.93z"/>
					<path d="M688.98,304.65L688.98,304.65c-5.54-5.66-14.63-5.68-20.2-0.05l0,0c-5.46,5.51-5.47,14.39-0.03,19.91v0
						c5.57,5.66,14.71,5.64,20.25-0.05l0,0C694.38,318.94,694.37,310.15,688.98,304.65z"/>
				</g>
			</g>
			<g>
				<polygon points="139.33,358.9 133.8,353.24 128.16,358.87 133.8,364.56 				"/>
				<path d="M176.92,369.5c-5.81-3.73-14.66-6.28-26.55-7.63l-1.72,9.64c1,0.14,1.96,0.29,2.9,0.44c-0.59,0.85-1.11,1.73-1.54,2.66
					c-0.74,1.61-1.11,3.19-1.11,4.76c0,1.83,0.39,3.53,1.14,5.13c-1.69,0.05-3.42,0.09-5.24,0.09c-1.38,0-2.55-0.15-3.52-0.44
					s-1.72-0.86-2.24-1.71c-0.52-0.84-0.78-2.08-0.78-3.71v-7.42h-8.98v7.42c0,1.63-0.26,2.86-0.78,3.71
					c-0.52,0.84-1.27,1.41-2.24,1.71c-0.97,0.29-2.15,0.44-3.55,0.44H105.7c-0.01,0-0.01,0-0.01,0c-0.01,0-0.01,0-0.02,0H88.65
					c-0.01,0-0.01,0-0.01,0c-0.01,0-0.01,0-0.02,0H71.6c-0.01,0-0.01,0-0.01,0c-0.01,0-0.01,0-0.02,0H54.55c-0.01,0-0.01,0-0.01,0
					c-0.01,0-0.01,0-0.02,0H37.5c-0.01,0-0.02,0-0.03,0c0,0,0,0,0,0l0,0c-1.94,0-3.37-0.2-4.3-0.59c-0.93-0.4-1.54-1.07-1.83-2.03
					c-0.29-0.96-0.44-2.28-0.44-3.97v-30.07h-9.1v33.29c0,5.51,1.16,9.41,3.49,11.7c2.33,2.29,6.06,3.44,11.22,3.44
					c0.01,0,0.02,0,0.03,0c0.01,0,0.02,0,0.03,0h16.99l0,0c0.01,0,0.02,0,0.03,0c0.01,0,0.01,0,0.01,0c0.01,0,0.01,0,0.02,0H70.6
					l0,0c0.01,0,0.02,0,0.03,0c0.01,0,0.01,0,0.01,0c0.01,0,0.01,0,0.02,0h16.99l0,0c0.01,0,0.02,0,0.03,0c0.01,0,0.01,0,0.01,0
					c0.01,0,0.01,0,0.02,0h16.99l0,0c0.01,0,0.02,0,0.03,0c0.01,0,0.01,0,0.01,0c0.01,0,0.01,0,0.02,0h16.99c0.01,0,0.02,0,0.03,0
					c0,0,0,0,0.01,0c0,0,0,0,0.01,0c2.4,0,4.47-0.28,6.19-0.84c1.73-0.56,3.11-1.58,4.13-3.07c0.35-0.51,0.65-1.1,0.92-1.75
					c0.29,0.58,0.6,1.13,0.98,1.6c1.2,1.5,2.66,2.56,4.38,3.16c1.71,0.6,3.53,0.9,5.46,0.91l0,0c0.01,0,0.02,0,0.03,0c0,0,0,0,0,0
					c0,0,0,0,0,0c0,0,0,0,0,0c0,0,0,0,0,0c4.01,0,7.29-0.23,9.84-0.69c2.46-0.44,4.5-1.06,6.13-1.85c0.55,0.27,1.1,0.54,1.68,0.78
					c2.88,1.18,6.17,1.77,9.89,1.77c4.48,0,7.98-1.16,10.48-3.47s3.75-5.57,3.75-9.76C185.64,377.78,182.73,373.24,176.92,369.5z
					 M159.08,383.32c-1.17-0.59-2.11-1.26-2.82-2c-0.71-0.74-1.06-1.54-1.06-2.39c0-0.69,0.24-1.38,0.73-2.06s1.12-1.27,1.88-1.74
					c0.76-0.47,1.54-0.7,2.33-0.7c0.92,0,1.75,0.26,2.49,0.78s1.33,1.16,1.77,1.91s0.66,1.48,0.66,2.19s-0.26,1.39-0.77,2.05
					c-0.51,0.66-1.25,1.21-2.22,1.66c-0.62,0.29-1.35,0.51-2.16,0.69C159.63,383.57,159.34,383.45,159.08,383.32z M175.92,385.43
					c-0.72,0.5-1.76,0.75-3.11,0.75c-0.99,0-2.27-0.11-3.79-0.32c0.26-0.39,0.52-0.78,0.74-1.18c1.18-2.13,1.77-4.56,1.79-7.28
					c0.95,0.48,1.78,0.98,2.46,1.49c1.99,1.48,2.99,3.03,2.99,4.63C177,384.29,176.64,384.93,175.92,385.43z"/>
				<polygon points="229.47,365.94 223.93,360.28 218.3,365.91 223.93,371.6 				"/>
				<path d="M345.37,369.69c-1.8-1.38-3.85-2.07-6.15-2.07c-2.61,0-4.87,0.76-6.79,2.27c-1.92,1.51-3.6,3.55-5.04,6.12l-1.56,2.75
					c-0.75,1.33-1.42,2.44-2,3.3c-0.58,0.87-1.26,1.5-2.02,1.91c-0.76,0.41-1.8,0.61-3.11,0.61h-17.02c-0.01,0-0.01,0-0.01,0
					c-0.01,0-0.01,0-0.02,0h-17.02c-0.01,0-0.01,0-0.01,0c-0.01,0-0.01,0-0.02,0h-17.02c-0.01,0-0.01,0-0.01,0
					c-0.01,0-0.01,0-0.02,0h-17.02c-0.01,0-0.01,0-0.01,0c-0.01,0-0.01,0-0.02,0c-1.98,0-3.49-0.17-4.54-0.52
					c-1.04-0.34-1.8-1-2.27-1.97s-0.87-2.39-1.2-4.27l-0.44-2.32h-9.39c0.44,2.5,0.8,4.7,1.08,6.59c0.28,1.89,0.49,3.56,0.63,5.01
					c0.14,1.45,0.2,2.8,0.2,4.05c0,1.79-0.47,3.27-1.42,4.44c-0.95,1.17-2.23,2.03-3.83,2.58c-1.61,0.55-3.41,0.83-5.41,0.83
					c-3.82,0-6.62-0.79-8.4-2.36c-1.78-1.58-2.67-3.98-2.67-7.21c0-1.56,0.16-3.3,0.48-5.21c0.32-1.91,0.75-3.84,1.27-5.8h-8.29
					c-0.71,2-1.3,4.2-1.77,6.6s-0.7,4.67-0.7,6.82c0,3.84,0.77,7.15,2.3,9.93c1.53,2.78,3.72,4.93,6.57,6.44
					c2.85,1.51,6.27,2.27,10.28,2.27c4.28,0,7.9-0.74,10.89-2.22c2.98-1.48,5.26-3.72,6.82-6.71c1.02-1.95,1.7-4.23,2.05-6.84
					c0.04,0.02,0.08,0.05,0.12,0.08c1.76,1.03,4,1.55,6.71,1.55c0.01,0,0.01,0,0.01,0c0.01,0,0.01,0,0.02,0h16.99l0,0
					c0.01,0,0.02,0,0.03,0c0.01,0,0.01,0,0.01,0c0.01,0,0.01,0,0.02,0h16.99l0,0c0.01,0,0.02,0,0.03,0c0.01,0,0.01,0,0.01,0
					c0.01,0,0.01,0,0.02,0h16.99l0,0c0.01,0,0.02,0,0.03,0c0.01,0,0.01,0,0.01,0c0.01,0,0.01,0,0.02,0h16.99c0.01,0,0.02,0,0.02,0
					c0,0,0,0,0.01,0c0,0,0.01,0,0.01,0c2.29,0,4.12-0.35,5.48-1.05c1.3-0.66,2.4-1.69,3.32-3.05c0.48,0.42,0.99,0.82,1.54,1.19
					c1.46,0.96,3.06,1.68,4.79,2.17c1.73,0.49,3.48,0.74,5.26,0.74c2.82,0,5.19-0.58,7.12-1.75c1.93-1.17,3.39-2.81,4.4-4.93
					c1-2.12,1.5-4.58,1.5-7.4c0-2.57-0.52-4.96-1.55-7.18C348.59,372.87,347.17,371.07,345.37,369.69z M341.82,384.73
					c-0.58,0.51-1.52,0.77-2.82,0.77c-1.23,0-2.51-0.18-3.83-0.53c-1.28-0.34-2.52-0.83-3.71-1.46c0.87-1.69,1.73-3.05,2.59-4.05
					c1.05-1.23,2.42-1.85,4.11-1.85c0.92,0,1.72,0.24,2.39,0.72c0.68,0.48,1.2,1.09,1.58,1.85s0.56,1.5,0.56,2.25
					C342.7,383.45,342.4,384.21,341.82,384.73z"/>
				<polygon points="370.7,396.35 374.14,396.35 379.8,396.35 379.8,357.77 370.7,357.77 				"/>
				<path d="M376.08,348.64c-1.13,0-1.99-0.12-2.58-0.38c-0.59-0.25-0.89-0.66-0.89-1.22c0-0.73,0.41-1.28,1.22-1.66
					c0.81-0.38,1.7-0.56,2.66-0.56c0.6,0,1.24,0.06,1.89,0.17c0.66,0.12,1.31,0.28,1.96,0.49v-4.44c-0.58-0.33-1.25-0.58-2-0.75
					c-0.75-0.17-1.45-0.25-2.1-0.25c-2.27,0-4.13,0.61-5.57,1.83c-1.44,1.22-2.16,2.79-2.16,4.71c0,1.21,0.29,2.22,0.86,3.04
					c0.35,0.5,0.71,0.86,1.09,1.11l-3.23,0.67v4.32l15.58-3.75v-4.32c-1.38,0.27-2.63,0.51-3.75,0.7
					C377.92,348.54,376.93,348.64,376.08,348.64z"/>
				<polygon points="533.82,404.64 539.45,410.33 544.99,404.67 539.45,399.01 				"/>
				<path d="M537.77,392.44c0.35-0.51,0.65-1.1,0.92-1.75c0.29,0.58,0.6,1.13,0.98,1.6c1.2,1.5,2.66,2.56,4.38,3.16
					c1.71,0.6,3.53,0.9,5.46,0.91l0,0c0.01,0,0.01,0,0.02,0c0,0,0.01,0,0.01,0c0,0,0,0,0.01,0c2.69,0,5.05-0.31,7.05-0.92
					c2.01-0.62,3.68-1.54,4.99-2.77c1.5-1.33,2.63-3.01,3.39-5.04s1.14-4.4,1.14-7.13c0-2.13-0.17-4.26-0.52-6.4
					s-0.84-4.43-1.49-6.87h-9.04c0.27,1.33,0.57,2.86,0.89,4.57c0.32,1.71,0.59,3.34,0.81,4.9s0.33,2.77,0.33,3.64
					c0,1.17-0.29,2.06-0.88,2.67c-0.58,0.62-1.38,1.03-2.38,1.25c-1,0.22-2.13,0.33-3.38,0.33c-1.38,0-2.55-0.15-3.52-0.44
					c-0.97-0.29-1.72-0.86-2.24-1.71c-0.52-0.84-0.78-2.08-0.78-3.71v-7.42h-8.98v7.42c0,1.63-0.26,2.86-0.78,3.71
					c-0.52,0.84-1.27,1.41-2.24,1.71c-0.97,0.29-2.15,0.44-3.55,0.44h-17.02c-0.01,0-0.01,0-0.01,0c-0.01,0-0.01,0-0.02,0h-17.02
					c-0.01,0-0.01,0-0.01,0c-0.01,0-0.01,0-0.02,0h-17.02c-0.01,0-0.01,0-0.01,0c-0.01,0-0.01,0-0.02,0h-17.02
					c-0.01,0-0.01,0-0.01,0c-0.01,0-0.01,0-0.02,0h-17.02c-0.01,0-0.01,0-0.01,0c-0.01,0-0.01,0-0.02,0H426.1c-0.01,0-0.01,0-0.01,0
					c-0.01,0-0.01,0-0.02,0c-1.27,0-2.32-0.12-3.13-0.36c-0.81-0.24-1.5-0.68-2.06-1.31c-0.56-0.64-1.07-1.56-1.53-2.77
					c-0.46-1.21-0.97-2.77-1.53-4.69l-4.16-13.98h-9.48l5.26,18.27c0.17,0.54,0.28,1,0.33,1.38c0.05,0.38,0.08,0.68,0.08,0.91
					c0,0.92-0.47,1.62-1.42,2.1c-0.95,0.48-2.59,0.72-4.93,0.72h-2.13c-2.36,0-4.01-0.31-4.96-0.92c-0.95-0.61-1.42-1.64-1.42-3.08
					c0-0.35,0.01-0.71,0.03-1.06c0.02-0.35,0.04-0.62,0.06-0.81h-7.32c-0.23,0.9-0.41,1.84-0.55,2.83c-0.14,0.99-0.2,2.07-0.2,3.24
					c0,3.78,1.21,6.65,3.63,8.62s5.88,2.96,10.39,2.96h2c2.88,0,5.25-0.48,7.12-1.44c1.87-0.96,3.24-2.34,4.13-4.13
					c0.02-0.04,0.03-0.08,0.05-0.12c0.06,0.09,0.11,0.19,0.17,0.28c1.24,1.92,2.75,3.26,4.52,4.02c1.77,0.76,3.81,1.14,6.1,1.14l0,0
					c0.01,0,0.02,0,0.03,0c0.01,0,0.01,0,0.01,0c0.01,0,0.01,0,0.02,0h16.99l0,0c0.01,0,0.02,0,0.03,0c0.01,0,0.01,0,0.01,0
					c0.01,0,0.01,0,0.02,0h16.99l0,0c0.01,0,0.02,0,0.03,0c0.01,0,0.01,0,0.01,0c0.01,0,0.01,0,0.02,0h16.99l0,0
					c0.01,0,0.02,0,0.03,0c0.01,0,0.01,0,0.01,0c0.01,0,0.01,0,0.02,0h16.99l0,0c0.01,0,0.02,0,0.03,0c0.01,0,0.01,0,0.01,0
					c0.01,0,0.01,0,0.02,0h16.99l0,0c0.01,0,0.02,0,0.03,0c0.01,0,0.01,0,0.01,0c0.01,0,0.01,0,0.02,0h16.99l0,0c0,0,0,0,0,0l0,0
					c0.01,0,0.02,0,0.03,0c0,0,0,0,0.01,0c0,0,0,0,0,0c0,0,0,0,0,0c0,0,0,0,0.01,0c2.4,0,4.47-0.28,6.19-0.84
					C535.37,394.94,536.74,393.92,537.77,392.44z"/>
				<polygon points="547.93,404.58 552.97,409.71 558.07,404.58 552.97,399.45 				"/>
				<polygon points="558.07,404.58 563.11,409.71 568.18,404.58 563.11,399.45 				"/>
				<path d="M608.19,375.86c1.06,0,2.07-0.09,3.02-0.28c0.95-0.19,1.77-0.48,2.46-0.88c0.77-0.46,1.38-1.06,1.83-1.8
					c0.45-0.74,0.67-1.64,0.67-2.71c0-1.71-0.69-3.12-2.08-4.22c-1.08-0.86-2.76-1.46-5.04-1.82l6.56-2.84v-4.79l-11.23,5.76v5.32
					c2.69,0.4,4.67,0.79,5.94,1.19c1.27,0.4,1.91,0.83,1.91,1.31c0,0.35-0.4,0.62-1.19,0.8c-0.79,0.18-1.75,0.27-2.88,0.27
					c-0.86,0-1.7-0.05-2.53-0.14c-0.83-0.09-1.56-0.2-2.19-0.33v4.66c0.73,0.15,1.49,0.27,2.28,0.36
					C606.51,375.81,607.34,375.86,608.19,375.86z"/>
				<path d="M645.83,377.89c0,1.77-0.21,3.14-0.63,4.11c-0.42,0.97-1.11,1.64-2.06,2.02c-0.96,0.38-2.25,0.56-3.88,0.56
					c-1.42,0-2.62-0.15-3.6-0.44s-1.72-0.89-2.21-1.8c-0.49-0.91-0.74-2.26-0.74-4.05v-30.38h-9.07v29.97
					c0,1.79-0.36,3.18-1.08,4.16c-0.72,0.98-1.86,1.65-3.41,2s-3.59,0.53-6.12,0.53h-5.32c-3.42,0-6.14-0.29-8.17-0.86
					c-2.02-0.57-3.48-1.52-4.36-2.83c-0.89-1.31-1.33-3.08-1.33-5.29c0-1.17,0.14-2.51,0.41-4.04c0.27-1.52,0.71-3.23,1.31-5.13
					h-7.79c-0.88,2.13-1.54,4.28-2,6.46c-0.46,2.18-0.69,4.29-0.69,6.34c0,5.78,1.65,10.07,4.94,12.89c3.3,2.82,8.7,4.22,16.21,4.22
					h6.01c3.09,0,5.85-0.33,8.27-0.99s4.36-1.76,5.79-3.3c0.46-0.49,0.84-1.05,1.16-1.66c0.32,0.72,0.7,1.36,1.13,1.91
					c1.18,1.5,2.62,2.55,4.33,3.14c1.7,0.59,3.48,0.89,5.35,0.89l0,0c0.01,0,0.01,0,0.02,0c0,0,0.01,0,0.01,0c0,0,0,0,0.01,0
					c2.36,0,4.42-0.23,6.17-0.67c1.76-0.45,3.27-1.13,4.52-2.05c2.06-1.46,3.56-3.54,4.47-6.23c0.92-2.69,1.38-6.01,1.38-9.95
					v-29.53h-9.04V377.89z"/>
				<polygon points="843.9,401.45 849.53,407.14 855.07,401.48 849.53,395.82 				"/>
				<path d="M861.39,372.76c-2.34,0-4.44-0.23-6.32-0.69c-1.88-0.46-3.67-1.02-5.37-1.69c-1.7-0.67-3.4-1.33-5.1-1.99
					c-1.7-0.66-3.51-1.21-5.44-1.67s-4.08-0.69-6.46-0.69c-1.65,0-3.17,0.12-4.57,0.36c-1.4,0.24-2.65,0.57-3.75,0.99v9.23
					c0.98-0.25,2.03-0.45,3.14-0.59c1.12-0.15,2.26-0.22,3.43-0.22c2.42,0,4.49,0.18,6.23,0.53c1.73,0.36,3.28,0.8,4.65,1.33
					c1.37,0.53,2.71,1.06,4.04,1.6c0.63,0.25,1.3,0.49,2.01,0.7c-0.78,0.3-1.63,0.62-2.57,0.97c-0.95,0.35-2.16,0.76-3.65,1.22
					c-1.92,0.58-3.92,1.06-6.01,1.42c-2.09,0.37-4.34,0.63-6.76,0.78c-2.41,0.16-5.08,0.23-8.01,0.23c-1.48,0-2.63-0.25-3.45-0.74
					c-0.82-0.49-1.5-1.24-2.03-2.25s-1.1-2.3-1.71-3.86c-0.73-1.88-1.61-3.59-2.63-5.13c-1.02-1.54-2.25-2.77-3.68-3.69
					c-1.43-0.92-3.11-1.38-5.05-1.38c-2.69,0-4.93,0.72-6.73,2.16c-1.79,1.44-3.41,3.38-4.85,5.82l-1.6,2.75
					c-0.88,1.46-1.63,2.65-2.27,3.58c-0.64,0.93-1.34,1.62-2.11,2.06c-0.77,0.45-1.79,0.67-3.07,0.67h-17.02c-0.01,0-0.01,0-0.01,0
					c-0.01,0-0.01,0-0.02,0h-17.02c-0.01,0-0.01,0-0.01,0c-0.01,0-0.01,0-0.02,0h-17.02c-0.01,0-0.01,0-0.01,0
					c-0.01,0-0.01,0-0.02,0h-17.02c-0.01,0-0.01,0-0.01,0c-0.01,0-0.01,0-0.02,0h-17.02c-0.01,0-0.01,0-0.01,0
					c-0.01,0-0.01,0-0.02,0h-17.02c-0.01,0-0.02,0-0.03,0c0,0,0,0,0,0l0,0c-1.94,0-3.37-0.2-4.3-0.59c-0.93-0.4-1.54-1.07-1.83-2.03
					c-0.29-0.96-0.44-2.28-0.44-3.97v-30.07h-9.1v33.29c0,5.51,1.16,9.41,3.49,11.7c2.33,2.29,6.06,3.44,11.22,3.44
					c0.01,0,0.02,0,0.03,0c0.01,0,0.02,0,0.03,0h16.99l0,0c0.01,0,0.02,0,0.03,0c0.01,0,0.01,0,0.01,0c0.01,0,0.01,0,0.02,0h16.99
					l0,0c0.01,0,0.02,0,0.03,0c0.01,0,0.01,0,0.01,0c0.01,0,0.01,0,0.02,0h16.99l0,0c0.01,0,0.02,0,0.03,0c0.01,0,0.01,0,0.01,0
					c0.01,0,0.01,0,0.02,0h16.99l0,0c0.01,0,0.02,0,0.03,0c0.01,0,0.01,0,0.01,0c0.01,0,0.01,0,0.02,0h16.99l0,0
					c0.01,0,0.02,0,0.03,0c0.01,0,0.01,0,0.01,0c0.01,0,0.01,0,0.02,0h16.99c0.01,0,0.02,0,0.02,0c0,0,0,0,0.01,0c0,0,0.01,0,0.01,0
					c2.15,0,3.9-0.33,5.25-0.97c1.35-0.64,2.51-1.68,3.5-3.1c0.47,0.42,0.96,0.82,1.51,1.18c1.44,0.95,3.01,1.67,4.72,2.16
					c1.71,0.49,3.43,0.74,5.16,0.74c2.36,0,4.36-0.42,6.02-1.25c1.57-0.79,2.77-1.89,3.64-3.29c0.01,0.02,0.02,0.04,0.03,0.07
					c0.77,1.36,1.91,2.44,3.41,3.25c1.5,0.81,3.46,1.22,5.88,1.22c0.01,0,0.02,0,0.03,0c0,0,0,0,0,0s0,0,0,0
					c3.84,0,7.27-0.22,10.29-0.67c3.02-0.45,5.81-1.16,8.37-2.13c2.55-0.97,5.06-2.24,7.52-3.8c2.84-1.81,5.16-3.16,6.96-4.05
					c1.8-0.89,3.36-1.47,4.68-1.75c1.31-0.28,2.63-0.42,3.94-0.42h3.41v-10.76H861.39z M805.8,384.05c-0.27,0.5-0.7,0.88-1.3,1.13
					c-0.59,0.25-1.36,0.38-2.3,0.38c-1.36,0-2.71-0.19-4.05-0.58c-1.24-0.36-2.42-0.84-3.56-1.43c0.79-1.43,1.65-2.72,2.57-3.88
					c1.17-1.46,2.59-2.19,4.25-2.19c0.98,0,1.81,0.23,2.49,0.7c0.68,0.47,1.2,1.06,1.58,1.78c0.38,0.72,0.58,1.45,0.63,2.21
					C806.17,382.93,806.07,383.55,805.8,384.05z"/>
			</g>
		</g>
		<g>
			<g>
				<path class="st1" d="M1015.86,182.19c3.44-1,6.6-3.17,8.5-6.51l0,0c1.99-3.35,2.35-7.24,1.45-10.68c-1-3.44-3.26-6.6-6.6-8.5
					l0,0c-3.35-1.9-7.15-2.35-10.58-1.36c-3.44,0.9-6.6,3.08-8.5,6.42v0.09c-1.9,3.35-2.35,7.15-1.45,10.58
					C1000.66,179.48,1008.62,184.09,1015.86,182.19L1015.86,182.19z"/>
				<path class="st1" d="M1216.79,328.3c-2.53-2.53-6.06-4.07-9.95-4.07l0,0c-3.89,0-7.33,1.54-9.86,4.07
					c-2.53,2.53-4.16,6.06-4.16,9.95l0,0c0,3.8,1.63,7.33,4.16,9.86c2.53,2.53,5.97,4.07,9.77,4.07h0.09c3.89,0,7.33-1.54,9.95-4.07
					C1222.03,342.77,1222.03,333.64,1216.79,328.3L1216.79,328.3z"/>
				<path class="st1" d="M1120.08,46.4c-2.53-2.53-5.97-4.07-9.86-4.07l0,0c-3.89,0-7.33,1.54-9.95,4.07
					c-2.53,2.53-4.07,6.06-4.07,9.86l0,0c0,3.89,1.54,7.42,4.16,9.95c2.53,2.53,5.97,4.07,9.77,4.07h0.09
					c3.89,0,7.33-1.54,9.86-4.07C1125.41,60.88,1125.41,51.74,1120.08,46.4L1120.08,46.4z"/>
				<path class="st1" d="M1074.12,313.19c1-3.44,0.54-7.24-1.36-10.58l0,0c-1.9-3.35-5.07-5.61-8.5-6.51
					c-3.44-1-7.33-0.54-10.68,1.36l0,0c-3.35,1.9-5.61,5.07-6.51,8.5c-0.9,3.44-0.54,7.24,1.36,10.58l0.09,0.09
					c1.9,3.35,4.98,5.52,8.5,6.51C1064.26,325.04,1072.22,320.52,1074.12,313.19L1074.12,313.19z"/>
				<path class="st1" d="M1269.98,88.56c0.9-3.44,0.54-7.24-1.45-10.58l0,0c-1.9-3.35-4.98-5.61-8.5-6.51
					c-3.44-1-7.24-0.54-10.58,1.36l0,0c-3.35,1.9-5.61,5.07-6.51,8.5c-1,3.44-0.54,7.24,1.36,10.58V92c1.9,3.26,5.07,5.52,8.5,6.51
					C1260.03,100.41,1267.99,95.89,1269.98,88.56L1269.98,88.56z"/>
				<path class="st1" d="M1308.34,239.46c3.44-1,6.51-3.17,8.5-6.51l0,0c1.9-3.35,2.26-7.24,1.36-10.68c-0.9-3.44-3.17-6.6-6.51-8.5
					l0,0c-3.35-1.9-7.15-2.35-10.58-1.36c-3.53,0.9-6.6,3.17-8.5,6.42l-0.09,0.09c-1.9,3.35-2.26,7.15-1.36,10.58
					C1293.14,236.75,1301.01,241.36,1308.34,239.46L1308.34,239.46z"/>
				<path class="st1" d="M1197.52,133.25c-13.48,10.58-20.26,15.92-20.26,15.92c-20.26-55.91-20.99-95.35-1.99-118.24
					C1221.94,62.6,1229.36,96.7,1197.52,133.25L1197.52,133.25z"/>
				<path class="st1" d="M1233.25,198.57c-16.01-6.42-23.97-9.59-23.97-9.59c38.27-45.6,72.1-65.86,101.41-60.88
					C1306.62,184.36,1280.84,207.89,1233.25,198.57L1233.25,198.57z"/>
				<path class="st1" d="M1194.53,262.08c-2.44-17.01-3.71-25.51-3.71-25.51c58.62,10.4,93.09,29.49,103.4,57.36
					C1243.48,318.53,1210.27,307.94,1194.53,262.08L1194.53,262.08z"/>
				<path class="st1" d="M1120.17,260.36c13.48-10.58,20.26-15.92,20.26-15.92c20.26,55.91,20.99,95.35,1.99,118.15
					C1095.74,331.01,1088.23,296.91,1120.17,260.36L1120.17,260.36z"/>
				<path class="st1" d="M1084.43,195.04c15.92,6.42,23.97,9.59,23.97,9.59c-38.27,45.6-72.1,65.86-101.41,60.88
					C1011.06,209.24,1036.85,185.72,1084.43,195.04L1084.43,195.04z"/>
				<path class="st1" d="M1123.15,131.53c2.44,17.01,3.62,25.51,3.62,25.51c-58.53-10.4-93-29.49-103.4-57.36
					C1074.21,74.99,1107.41,85.66,1123.15,131.53L1123.15,131.53z"/>
				<path d="M1209.1,200.2c-3.08-1.27-4.52-4.89-3.17-7.96c0.63-1.54,1.9-2.71,3.35-3.26c3.53-1.63,45.23-15.92,65.32-40.17
					c-3.44,18.55-22.35,34.65-46.32,45.14c3.53,1,6.97,1.63,10.31,2.08c14.02,1.81,26.78-0.45,37.63-6.88
					c10.86-6.51,19.9-17.28,26.33-32.3c3.53-8.32,6.33-17.91,8.14-28.77c-47.77-8.68-73.82,16.83-96.08,38.63
					c-8.87,8.68-17.28,16.92-26.24,22.53c-8.05,5.16-10.58,14.57-0.81,19.45c8.05,3.98,18,6.69,28.5,9.68
					c34.11,9.5,74.18,20.63,91.55,77.26c0.9,2.99-0.54,6.15-3.44,7.42c-13.39,5.52-25.96,8.96-37.45,10.31
					c-18.91,2.26-35.19-0.72-48.49-8.14c-13.39-7.6-23.61-19.54-30.13-35.1c-3.44-8.41-5.88-17.82-7.06-28.04
					c-0.45-3.35,1.9-6.42,5.25-6.79c1.72-0.27,3.35,0.27,4.52,1.27c3.17,2.26,36.46,31.21,67.49,36.46
					c-17.91,6.33-41.25-1.99-62.33-17.55c0.9,3.53,2.08,6.88,3.35,10.04c5.43,13.03,13.84,22.89,24.79,29.04
					c11.13,6.24,24.97,8.68,41.16,6.79c8.96-1.09,18.64-3.53,28.95-7.42c-16.28-45.69-51.39-55.46-81.42-63.87
					c-12.48-3.44-24.15-6.69-33.74-12.03c-7.6-4.16-16.74-0.54-16.19,8.96c0.54,9.14,3.17,19.36,5.88,30.13
					c8.87,34.29,19.18,74.64-21.08,117.97c-2.17,2.26-5.7,2.62-8.14,0.72c-11.58-8.87-20.72-18-27.68-27.32
					c-11.4-15.2-17.01-30.76-17.19-46.05c-0.18-15.38,5.07-30.22,15.29-43.61c5.52-7.24,12.48-13.93,20.81-20.17
					c2.71-2.08,6.51-1.54,8.5,1.18c1,1.36,1.36,3.08,1.18,4.61c-0.45,3.89-8.87,47.04,2.08,76.63
					c-14.38-12.3-18.82-36.73-15.92-62.78c-2.62,2.62-4.89,5.25-6.97,7.96c-8.59,11.22-12.94,23.43-12.85,36.01
					c0.18,12.67,4.98,25.87,14.75,38.99c5.43,7.24,12.39,14.38,20.9,21.44c31.39-37,22.35-72.37,14.57-102.5
					c-3.26-12.57-6.24-24.34-6.42-35.28c-0.18-7.69-7.6-14.75-15.29-9.86c-7.87,4.98-15.56,12.48-23.7,20.54
					c-25.24,24.79-55,53.92-112.72,40.71c-3.08-0.72-5.07-3.62-4.7-6.79c1.9-14.38,5.25-26.87,9.77-37.54
					c7.51-17.46,18.27-30.13,31.39-37.91c13.21-7.87,28.59-10.77,45.41-8.5c8.96,1.18,18.27,3.8,27.86,7.87
					c3.08,1.27,4.52,4.89,3.17,7.96c-0.63,1.54-1.9,2.71-3.35,3.26c-3.62,1.63-45.23,15.92-65.32,40.17
					c3.44-18.64,22.35-34.65,46.32-45.23c-3.53-0.9-6.97-1.54-10.31-1.99c-14.02-1.81-26.78,0.45-37.63,6.88
					c-10.86,6.51-19.9,17.28-26.33,32.21c-3.53,8.41-6.33,18-8.14,28.86c47.77,8.68,73.82-16.83,96.08-38.63
					c9.05-8.87,17.55-17.19,26.69-22.89c6.33-3.89,9.95-13.93,2.44-18c-8.5-4.61-19.18-7.6-30.58-10.77
					c-34.11-9.5-74.18-20.72-91.55-77.26c-1-2.99,0.54-6.24,3.44-7.42c13.39-5.61,25.87-8.96,37.45-10.31
					c18.82-2.26,35.19,0.72,48.49,8.14c13.39,7.51,23.61,19.45,30.13,35.1c3.44,8.32,5.88,17.73,7.06,28.05
					c0.45,3.35-1.9,6.42-5.25,6.79c-1.72,0.18-3.35-0.27-4.61-1.27c-3.08-2.26-36.37-31.21-67.4-36.55
					c17.82-6.24,41.25,2.08,62.33,17.55c-1-3.44-2.08-6.79-3.44-9.95c-5.34-13.03-13.75-22.98-24.7-29.13
					c-11.13-6.15-24.97-8.59-41.16-6.69c-8.96,1.09-18.64,3.53-29.04,7.42c16.37,45.69,51.48,55.46,81.51,63.87
					c11.58,3.17,22.44,6.24,31.66,10.86c6.79,3.44,18.64,4.16,18.36-6.24c-0.27-9.5-3.08-20.26-5.97-31.75
					c-8.87-34.2-19.18-74.55,21.08-117.97c2.17-2.26,5.7-2.53,8.14-0.63c11.58,8.78,20.72,18,27.68,27.23
					c11.4,15.2,17.01,30.85,17.19,46.14c0.18,15.38-5.07,30.13-15.38,43.61c-5.52,7.15-12.39,13.93-20.72,20.17
					c-2.71,1.99-6.51,1.45-8.5-1.18c-1-1.36-1.36-3.08-1.18-4.61c0.45-3.89,8.87-47.13-2.08-76.63
					c14.38,12.3,18.82,36.73,15.92,62.78c2.62-2.62,4.89-5.25,6.97-7.96c8.59-11.22,12.94-23.43,12.85-36.01
					c-0.18-12.76-4.98-25.96-14.75-38.99c-5.43-7.24-12.39-14.38-20.9-21.44c-31.39,37-22.35,72.28-14.57,102.5
					c3.08,11.85,5.88,23.07,6.42,33.56c0.36,9.14,6.79,17.01,15.38,11.49c7.87-5.07,15.47-12.48,23.61-20.45
					c25.24-24.79,55-53.92,112.72-40.71c3.08,0.72,5.07,3.62,4.7,6.69c-1.9,14.38-5.25,26.96-9.77,37.63
					c-7.51,17.46-18.27,30.13-31.39,37.91c-13.21,7.87-28.68,10.68-45.41,8.5C1228.01,206.89,1218.69,204.27,1209.1,200.2
					L1209.1,200.2z M1233.89,343.14c-0.18,6.79-2.99,12.94-7.42,17.37c-4.7,4.61-11.04,7.51-18.09,7.51l0,0
					c-7.15,0-13.48-2.89-18.09-7.51c-4.61-4.61-7.51-11.04-7.51-18.09l0,0c0-7.06,2.89-13.48,7.51-18.09s11.04-7.51,18.09-7.51h0.63
					h0.09c6.79,0.27,12.85,3.08,17.37,7.51c4.61,4.61,7.42,11.04,7.42,18.09V343.14L1233.89,343.14z M1219.59,353.63
					c2.8-2.89,4.61-6.88,4.61-11.22l0,0c0-4.34-1.81-8.32-4.7-11.22c-2.8-2.89-6.79-4.61-11.13-4.61l0,0l0,0
					c-4.43,0-8.41,1.72-11.22,4.61c-2.9,2.89-4.7,6.88-4.7,11.22l0,0c0,4.34,1.81,8.32,4.7,11.22c2.8,2.89,6.79,4.61,11.22,4.61l0,0
					C1212.72,358.24,1216.7,356.52,1219.59,353.63L1219.59,353.63z M1134.82,49.75l0.09,0.09v2.08l0,0
					c-0.18,6.79-3.08,12.94-7.51,17.37c-4.25,4.25-10.13,7.06-16.65,7.42h-0.09h-1.36c-7.06,0-13.48-2.8-18.09-7.42
					c-4.25-4.34-7.06-10.22-7.42-16.74v-0.09V51.2c0-7.06,2.8-13.48,7.42-18.09c4.34-4.34,10.22-7.15,16.74-7.51h2.08
					c6.79,0.18,12.94,2.99,17.37,7.51C1131.75,37.45,1134.55,43.24,1134.82,49.75L1134.82,49.75z M1120.53,62.41
					c6.06-6.06,6.06-16.37,0-22.44c-2.89-2.89-6.79-4.61-11.22-4.61l0,0c-4.34,0-8.32,1.72-11.22,4.61
					c-2.8,2.89-4.61,6.79-4.61,11.22l0,0c0,4.34,1.81,8.32,4.61,11.22c2.89,2.8,6.88,4.61,11.22,4.61l0,0
					C1113.74,67.03,1117.63,65.22,1120.53,62.41L1120.53,62.41z M1322.45,204.54c6.15,3.62,10.22,9.23,11.94,15.56
					c1.72,6.33,1,13.3-2.53,19.45l0,0c-3.53,6.06-9.23,10.22-15.56,11.85c-6.33,1.72-13.3,1-19.36-2.53l0,0
					c-6.15-3.53-10.22-9.23-11.94-15.47c-1.63-6.15-1-12.85,2.17-18.82l0,0l0.36-0.63c3.53-6.15,9.23-10.22,15.56-11.94
					c6.06-1.63,12.76-1,18.73,2.26h0.09L1322.45,204.54z M1324.99,222.63c-1-3.89-3.53-7.42-7.33-9.59l0,0
					c-3.8-2.26-8.14-2.62-12.03-1.63c-3.98,1.09-7.51,3.62-9.68,7.33v0.09c-2.17,3.71-2.62,8.05-1.54,12.03
					c1,3.89,3.53,7.42,7.33,9.59l0,0c3.8,2.17,8.14,2.62,12.03,1.63c3.98-1.09,7.51-3.62,9.68-7.42l0,0
					C1325.62,230.87,1326.07,226.52,1324.99,222.63L1324.99,222.63z M1020.11,144.38L1020.11,144.38l1.81,1l0.09,0.09
					c5.43,3.53,9.14,8.87,10.68,14.75c3.71,13.93-4.25,27.68-18.09,31.39c-6.33,1.63-13.3,0.9-19.36-2.62l-1.18-0.63l-0.09-0.09
					c-5.43-3.53-9.14-8.87-10.68-14.75c-1.72-6.33-1-13.3,2.53-19.45l0.63-1.18h0.09c3.62-5.52,8.96-9.14,14.84-10.77
					C1007.44,140.49,1014.14,141.12,1020.11,144.38L1020.11,144.38z M1023.28,162.74c-2.17-8.23-11.22-13.39-19.36-11.22
					c-3.98,1.09-7.51,3.62-9.68,7.42l0,0c-2.17,3.8-2.62,8.05-1.54,12.03c1,3.89,3.53,7.42,7.33,9.59l0,0
					c3.8,2.17,8.14,2.62,12.03,1.63c3.98-1.09,7.51-3.62,9.68-7.42l0,0C1023.91,170.98,1024.36,166.63,1023.28,162.74
					L1023.28,162.74z M1247.37,58.98c6.15-3.53,13.12-4.25,19.45-2.53c6.33,1.63,12.03,5.79,15.56,11.85
					c3.53,6.15,4.25,13.12,2.53,19.45c-1.72,6.33-5.79,12.03-11.94,15.56l0,0c-6.15,3.53-13.12,4.25-19.36,2.53
					c-6.33-1.72-12.03-5.79-15.56-11.94c-3.53-6.06-4.25-13.12-2.53-19.36C1237.14,68.2,1241.3,62.5,1247.37,58.98L1247.37,58.98z
					 M1264.28,65.85c-3.89-1.09-8.23-0.63-12.03,1.54c-3.8,2.17-6.33,5.7-7.33,9.59c-1.09,3.98-0.63,8.23,1.54,12.03
					c2.17,3.8,5.7,6.33,9.59,7.42c3.98,1.09,8.32,0.63,12.03-1.54V94.8c3.8-2.17,6.33-5.7,7.42-9.59c1.09-3.89,0.63-8.23-1.63-12.03
					C1271.7,69.38,1268.17,66.85,1264.28,65.85L1264.28,65.85z M1044.72,290.3c6.06-3.53,13.03-4.25,19.36-2.53
					c6.33,1.72,12.03,5.79,15.56,11.94c3.53,6.06,4.25,13.03,2.53,19.36c-1.63,6.33-5.79,12.03-11.85,15.56
					c-6.15,3.53-13.12,4.25-19.45,2.53c-6.33-1.72-12.03-5.79-15.56-11.94c-3.53-6.06-4.25-13.03-2.53-19.36
					S1038.57,293.83,1044.72,290.3L1044.72,290.3z M1061.54,297.18c-3.89-1.09-8.23-0.63-11.94,1.54c-3.8,2.26-6.33,5.7-7.42,9.68
					c-1.09,3.89-0.63,8.23,1.54,12.03c2.26,3.71,5.7,6.33,9.68,7.33c3.89,1.09,8.23,0.63,12.03-1.54c3.8-2.26,6.33-5.7,7.33-9.68
					c1.09-3.89,0.63-8.23-1.54-12.03C1069.05,300.8,1065.53,298.17,1061.54,297.18L1061.54,297.18z"/>
			</g>
			<g>
				<path class="st2" d="M1370.81,306.84c-0.07-0.01-0.14-0.02-0.21-0.02c-6.07,0-23.86,38.54-33.6,55.4
					c-1.74,3.02-3.23,5.35-4.35,6.64c-16.63,19.15-35.77,33.01-57.8,41.19c-2.25,0.83-4.53,1.61-6.84,2.33
					c-11.98,3.71-24.76,5.84-38.45,6.26c21.38-13.47,44.94-39.8,44.54-66.69c-0.02-1.07-0.72-1.56-1.98-1.55
					c-12.34,0-78.2,46.37-82.92,52.71c-4.71,6.35-8.73,13.19-12.13,20.36c-4.06,8.58-7.2,17.65-9.42,27.01
					c-1.79,7.55-3.01,15.27-3.65,23.07c-2.66,32.61,4.63,66.43,20.65,93.25c11.22-32.43,36.61-52.76,63.34-73.55
					c29.45-22.89,73.38-36.06,96.84-66.13C1351.58,418.5,1396.14,310.77,1370.81,306.84z"/>
				<path class="st2" d="M1150.02,450.47c-2.22-9.36-5.36-18.43-9.42-27.01c-3.39-7.17-7.41-14-12.13-20.36
					c-4.71-6.35-70.58-52.71-82.91-52.71c-1.27,0-1.97,0.49-1.98,1.55c-0.4,26.89,23.16,53.22,44.54,66.69
					c-13.69-0.42-26.47-2.55-38.45-6.26c-2.31-0.72-4.59-1.49-6.84-2.33c-22.03-8.18-41.17-22.04-57.8-41.19
					c-1.12-1.29-2.61-3.63-4.36-6.66c-9.74-16.87-27.52-55.38-33.59-55.38c-0.07,0-0.14,0.01-0.21,0.02
					c-25.33,3.93,19.23,111.66,25.96,120.28c23.46,30.06,67.39,43.24,96.84,66.13c26.73,20.78,52.13,41.11,63.34,73.55
					c16.02-26.82,23.32-60.64,20.65-93.25C1153.03,465.75,1151.81,458.02,1150.02,450.47z"/>
			</g>
		</g>
	</g>
	<g class="st3">
		<g class="st4">
			<g>
				<path d="M676.66,263.25H654.2l-3.97,12.59h-20.26l25.83-72.23h19.59l25.83,72.23h-20.6L676.66,263.25z M671.17,245.71
					l-5.74-18.16l-5.74,18.16H671.17z"/>
				<path d="M754.83,247.57c0,18.16-10.22,29.3-22.29,29.3c-5.74,0-9.88-1.86-12.66-5.68v4.64h-18.15v-76.56h19.08v23.94
					c2.79-3.3,6.67-4.85,11.74-4.85C744.62,218.37,754.83,229.41,754.83,247.57z M735.5,247.57c0-7.33-3.29-11.04-7.51-11.04
					s-7.51,3.71-7.51,11.04c0,7.33,3.29,11.14,7.51,11.14S735.5,254.89,735.5,247.57z"/>
				<path d="M804.39,245.5v30.33h-17.73v-7.43c-2.19,5.67-6.58,8.46-13.09,8.46c-11.31,0-17.14-7.84-17.14-17.54
					c0-10.94,6.75-17.02,21.11-17.02h7.68c-0.59-4.33-3.29-6.6-8.7-6.6c-4.14,0-8.78,1.65-11.82,4.44l-6.08-15.37
					c5.4-4.13,13.59-6.4,20.77-6.4C795.27,218.37,804.39,226.73,804.39,245.5z M785.31,257.47v-3.92h-4.73
					c-4.05,0-5.83,1.65-5.83,4.75c0,2.58,1.69,4.54,4.56,4.54C781.93,262.84,784.3,261.19,785.31,257.47z"/>
				<path d="M861.2,219.4v76.46h-19.08v-23.83c-2.79,3.3-6.67,4.85-11.74,4.85c-12.07,0-22.29-11.04-22.29-29.2
					c0-18.16,10.22-29.3,22.29-29.3c5.74,0,9.88,1.86,12.66,5.68v-4.64H861.2z M842.46,247.67c0-7.33-3.29-11.14-7.51-11.14
					c-4.22,0-7.51,3.82-7.51,11.14c0,7.33,3.29,11.04,7.51,11.04C839.17,258.71,842.46,255,842.46,247.67z"/>
				<path d="M940.48,257.47v18.37h-49.14v-72.23h48.04v18.37h-28.45v8.46h24.99v17.54h-24.99v9.49H940.48z"/>
				<path d="M945.45,199.28h19.08v76.56h-19.08V199.28z"/>
				<path d="M1016.54,245.5v30.33h-17.73v-7.43c-2.19,5.67-6.58,8.46-13.09,8.46c-11.31,0-17.14-7.84-17.14-17.54
					c0-10.94,6.75-17.02,21.11-17.02h7.68c-0.59-4.33-3.29-6.6-8.7-6.6c-4.14,0-8.78,1.65-11.82,4.44l-6.08-15.37
					c5.4-4.13,13.59-6.4,20.77-6.4C1007.42,218.37,1016.54,226.73,1016.54,245.5z M997.46,257.47v-3.92h-4.73
					c-4.05,0-5.83,1.65-5.83,4.75c0,2.58,1.69,4.54,4.56,4.54C994.08,262.84,996.44,261.19,997.46,257.47z"/>
				<path d="M1073.69,243.65v32.19h-19.08v-28.17c0-7.02-2.2-9.7-5.66-9.7c-3.88,0-7.18,2.99-7.18,11.35v26.52h-19.08V219.4h18.15
					v5.57c3.63-4.44,8.53-6.6,13.93-6.6C1065.42,218.37,1073.69,225.9,1073.69,243.65z"/>
				<path d="M1125.52,245.5v30.33h-17.73v-7.43c-2.19,5.67-6.58,8.46-13.09,8.46c-11.31,0-17.14-7.84-17.14-17.54
					c0-10.94,6.75-17.02,21.11-17.02h7.68c-0.59-4.33-3.29-6.6-8.7-6.6c-4.14,0-8.78,1.65-11.82,4.44l-6.08-15.37
					c5.4-4.13,13.59-6.4,20.77-6.4C1116.41,218.37,1125.52,226.73,1125.52,245.5z M1106.44,257.47v-3.92h-4.73
					c-4.05,0-5.83,1.65-5.83,4.75c0,2.58,1.69,4.54,4.56,4.54C1103.07,262.84,1105.43,261.19,1106.44,257.47z"/>
				<path d="M1183.1,219.4l-19,57.57c-5.07,15.48-12.5,19.91-22.29,19.91c-5.07,0-10.89-1.96-14.01-5.06l6.33-15.99
					c1.86,1.75,4.47,2.99,6.75,2.99c2.28,0,3.71-0.83,4.73-2.27l-19.42-57.16h19.59l9.54,30.23l9.71-30.23H1183.1z"/>
				<path d="M1229.62,245.5v30.33h-17.73v-7.43c-2.19,5.67-6.58,8.46-13.09,8.46c-11.31,0-17.14-7.84-17.14-17.54
					c0-10.94,6.75-17.02,21.11-17.02h7.68c-0.59-4.33-3.29-6.6-8.7-6.6c-4.14,0-8.78,1.65-11.82,4.44l-6.08-15.37
					c5.4-4.13,13.59-6.4,20.77-6.4C1220.5,218.37,1229.62,226.73,1229.62,245.5z M1210.54,257.47v-3.92h-4.73
					c-4.05,0-5.83,1.65-5.83,4.75c0,2.58,1.69,4.54,4.56,4.54C1207.16,262.84,1209.52,261.19,1210.54,257.47z"/>
				<path d="M1286.77,243.65v32.19h-19.08v-28.17c0-7.02-2.2-9.7-5.66-9.7c-3.88,0-7.18,2.99-7.18,11.35v26.52h-19.08v-76.56h19.08
					v24.66c3.55-3.71,8.02-5.57,13-5.57C1278.5,218.37,1286.77,225.9,1286.77,243.65z"/>
			</g>
		</g>
		<g class="st4">
			<path d="M558.88,350.12v16.07h-9.54v-16.2l-15.96-29.16h10.13l11.01,20.15l11.01-20.15h9.36L558.88,350.12z"/>
			<path d="M574.43,348.76c0-10.5,7.36-17.95,17.43-17.95s17.38,7.45,17.38,17.95c0,10.5-7.3,17.95-17.38,17.95
				S574.43,359.25,574.43,348.76z M599.93,348.76c0-6.03-3.48-9.65-8.07-9.65s-8.13,3.63-8.13,9.65s3.53,9.65,8.13,9.65
				S599.93,354.78,599.93,348.76z"/>
			<path d="M645.81,331.33v34.86h-8.72v-4.15c-2.41,3.04-5.95,4.67-9.84,4.67c-7.95,0-13.55-4.92-13.55-15.68v-19.7h9.19v18.21
				c0,5.83,2.36,8.42,6.42,8.42c4.24,0,7.3-2.98,7.3-9.39v-17.23H645.81z"/>
			<path d="M672.55,330.81v9.33c-0.77-0.07-1.35-0.13-2.06-0.13c-5.07,0-8.42,3.04-8.42,9.72v16.46h-9.19v-34.86h8.78v4.6
				C663.89,332.56,667.66,330.81,672.55,330.81z"/>
			<path d="M726.5,348.76c0,10.95-6.89,17.95-15.78,17.95c-4.24,0-7.66-1.49-9.95-4.54v4.02h-8.78v-48.07h9.19v16.91
				c2.36-2.85,5.6-4.21,9.54-4.21C719.61,330.81,726.5,337.81,726.5,348.76z M717.19,348.76c0-6.03-3.47-9.65-8.07-9.65
				s-8.07,3.63-8.07,9.65s3.48,9.65,8.07,9.65S717.19,354.78,717.19,348.76z"/>
			<path d="M762.01,351.61h-23.97c0.88,4.34,4.24,7,9.07,7c3.36,0,5.77-1.1,7.95-3.37l4.89,5.83c-2.95,3.69-7.36,5.64-13.08,5.64
				c-10.96,0-18.08-7.58-18.08-17.95c0-10.43,7.24-17.95,16.9-17.95c9.31,0,16.49,6.87,16.49,18.08
				C762.19,349.66,762.07,350.76,762.01,351.61z M737.92,345.71h15.61c-0.65-4.41-3.65-7.26-7.77-7.26
				C741.58,338.45,738.57,341.24,737.92,345.71z"/>
			<path d="M794.88,346.29v19.89h-8.6v-4.34c-1.71,3.17-5.01,4.86-9.66,4.86c-7.42,0-11.84-4.54-11.84-10.56
				c0-6.16,3.95-10.43,13.61-10.43h7.3c0-4.34-2.36-6.87-7.3-6.87c-3.36,0-6.83,1.23-9.13,3.24l-3.3-7.06
				c3.48-2.72,8.6-4.21,13.66-4.21C789.28,330.81,794.88,335.73,794.88,346.29z M785.69,355.17v-3.56h-6.3
				c-4.3,0-5.65,1.75-5.65,4.08c0,2.53,1.94,4.21,5.18,4.21C781.98,359.9,784.63,358.34,785.69,355.17z"/>
			<path d="M833.63,331.33v34.86h-8.72v-4.15c-2.41,3.04-5.95,4.67-9.84,4.67c-7.95,0-13.55-4.92-13.55-15.68v-19.7h9.19v18.21
				c0,5.83,2.36,8.42,6.42,8.42c4.24,0,7.3-2.98,7.3-9.39v-17.23H833.63z"/>
			<path d="M861.13,364.5c-1.88,1.49-4.65,2.2-7.48,2.2c-7.48,0-11.84-4.21-11.84-12.5v-14.32h-4.89v-7.77h4.89v-8.49H851v8.49h7.89
				v7.77H851v14.19c0,2.98,1.47,4.6,3.95,4.6c1.35,0,2.71-0.45,3.71-1.3L861.13,364.5z"/>
			<path d="M896.3,331.33l-14.31,36.99c-3.06,8.42-7.42,10.95-13.13,10.95c-3.24,0-6.77-1.17-8.83-3.17l3.36-7.19
				c1.41,1.36,3.36,2.2,5.18,2.2c2.53,0,3.95-1.23,5.18-4.34l0.12-0.32l-13.72-35.12h9.48l8.89,23.65l8.95-23.65H896.3z"/>
			<path d="M910.72,362.95l3.06-7.26c2.83,2.01,7.13,3.37,11.01,3.37c4.24,0,5.83-1.23,5.83-3.17c0-5.7-19.14,0.13-19.14-13.8
				c0-6.61,5.42-11.27,14.67-11.27c4.36,0,9.19,1.1,12.19,3.04l-3.06,7.19c-3.12-1.94-6.24-2.59-9.13-2.59
				c-4.12,0-5.89,1.42-5.89,3.24c0,5.96,19.14,0.19,19.14,13.93c0,6.48-5.48,11.08-14.96,11.08
				C919.09,366.7,913.67,365.08,910.72,362.95z"/>
			<path d="M964.02,364.5c-1.88,1.49-4.65,2.2-7.48,2.2c-7.48,0-11.84-4.21-11.84-12.5v-14.32h-4.89v-7.77h4.89v-8.49h9.19v8.49
				h7.89v7.77h-7.89v14.19c0,2.98,1.47,4.6,3.95,4.6c1.35,0,2.71-0.45,3.71-1.3L964.02,364.5z"/>
			<path d="M995.77,346.29v19.89h-8.6v-4.34c-1.71,3.17-5.01,4.86-9.66,4.86c-7.42,0-11.84-4.54-11.84-10.56
				c0-6.16,3.95-10.43,13.61-10.43h7.3c0-4.34-2.36-6.87-7.3-6.87c-3.36,0-6.83,1.23-9.13,3.24l-3.3-7.06
				c3.48-2.72,8.6-4.21,13.66-4.21C990.17,330.81,995.77,335.73,995.77,346.29z M986.58,355.17v-3.56h-6.3
				c-4.3,0-5.65,1.75-5.65,4.08c0,2.53,1.94,4.21,5.18,4.21C982.87,359.9,985.52,358.34,986.58,355.17z"/>
			<path d="M1022.27,330.81v9.33c-0.77-0.07-1.35-0.13-2.06-0.13c-5.07,0-8.42,3.04-8.42,9.72v16.46h-9.19v-34.86h8.78v4.6
				C1013.61,332.56,1017.38,330.81,1022.27,330.81z"/>
			<path d="M1046.95,364.5c-1.88,1.49-4.65,2.2-7.48,2.2c-7.48,0-11.84-4.21-11.84-12.5v-14.32h-4.89v-7.77h4.89v-8.49h9.19v8.49
				h7.89v7.77h-7.89v14.19c0,2.98,1.47,4.6,3.95,4.6c1.35,0,2.71-0.45,3.71-1.3L1046.95,364.5z"/>
			<path d="M1047.6,362.95l3.06-7.26c2.83,2.01,7.13,3.37,11.01,3.37c4.24,0,5.83-1.23,5.83-3.17c0-5.7-19.14,0.13-19.14-13.8
				c0-6.61,5.42-11.27,14.67-11.27c4.36,0,9.19,1.1,12.19,3.04l-3.06,7.19c-3.12-1.94-6.24-2.59-9.13-2.59
				c-4.12,0-5.89,1.42-5.89,3.24c0,5.96,19.14,0.19,19.14,13.93c0,6.48-5.48,11.08-14.96,11.08
				C1055.96,366.7,1050.54,365.08,1047.6,362.95z"/>
			<path d="M1105.73,332.11h8.13v7.77h-7.89v26.3h-9.19v-26.3h-4.89v-7.77h4.89v-1.55c0-7.84,4.36-12.96,12.25-12.96
				c2.59,0,5.3,0.58,7.01,1.88l-2.41,7.32c-1-0.78-2.3-1.23-3.71-1.23c-2.71,0-4.18,1.62-4.18,5.05V332.11z"/>
			<path d="M1136.65,330.81v9.33c-0.77-0.07-1.35-0.13-2.06-0.13c-5.07,0-8.42,3.04-8.42,9.72v16.46h-9.19v-34.86h8.78v4.6
				C1127.99,332.56,1131.76,330.81,1136.65,330.81z"/>
			<path d="M1138.53,348.76c0-10.5,7.36-17.95,17.43-17.95s17.38,7.45,17.38,17.95c0,10.5-7.3,17.95-17.38,17.95
				S1138.53,359.25,1138.53,348.76z M1164.03,348.76c0-6.03-3.48-9.65-8.07-9.65s-8.13,3.63-8.13,9.65s3.53,9.65,8.13,9.65
				S1164.03,354.78,1164.03,348.76z"/>
			<path d="M1231.53,346.23v19.96h-9.19v-18.4c0-5.64-2.3-8.23-6.01-8.23c-4.12,0-7.01,2.92-7.01,9.13v17.49h-9.19v-18.4
				c0-5.64-2.18-8.23-6.01-8.23c-4.06,0-6.95,2.92-6.95,9.13v17.49h-9.19v-34.86h8.78v4.02c2.36-2.98,5.89-4.54,9.95-4.54
				c4.42,0,8.19,1.88,10.42,5.7c2.53-3.56,6.66-5.7,11.43-5.7C1226.11,330.81,1231.53,335.6,1231.53,346.23z"/>
			<path d="M1285.89,346.23v19.96h-9.19v-18.4c0-5.64-2.36-8.23-6.42-8.23c-4.42,0-7.6,2.98-7.6,9.39v17.23h-9.19v-48.07h9.19v16.84
				c2.47-2.72,6.01-4.15,10.07-4.15C1280.24,330.81,1285.89,335.6,1285.89,346.23z"/>
			<path d="M1323.58,351.61h-23.97c0.88,4.34,4.24,7,9.07,7c3.36,0,5.77-1.1,7.95-3.37l4.89,5.83c-2.95,3.69-7.36,5.64-13.08,5.64
				c-10.96,0-18.08-7.58-18.08-17.95c0-10.43,7.24-17.95,16.9-17.95c9.31,0,16.49,6.87,16.49,18.08
				C1323.76,349.66,1323.64,350.76,1323.58,351.61z M1299.49,345.71h15.61c-0.65-4.41-3.65-7.26-7.77-7.26
				C1303.14,338.45,1300.14,341.24,1299.49,345.71z"/>
			<path d="M1348.08,330.81v9.33c-0.77-0.07-1.35-0.13-2.06-0.13c-5.07,0-8.42,3.04-8.42,9.72v16.46h-9.19v-34.86h8.78v4.6
				C1339.42,332.56,1343.19,330.81,1348.08,330.81z"/>
			<path d="M1383.18,351.61h-23.97c0.88,4.34,4.24,7,9.07,7c3.36,0,5.77-1.1,7.95-3.37l4.89,5.83c-2.95,3.69-7.36,5.64-13.08,5.64
				c-10.96,0-18.08-7.58-18.08-17.95c0-10.43,7.24-17.95,16.9-17.95c9.31,0,16.49,6.87,16.49,18.08
				C1383.36,349.66,1383.24,350.76,1383.18,351.61z M1359.1,345.71h15.61c-0.65-4.41-3.65-7.26-7.77-7.26
				C1362.75,338.45,1359.74,341.24,1359.1,345.71z"/>
		</g>
	</g>
	<g class="st3">
		<g class="st4">
			<path class="st1" d="M108.68,179.8c3.44-1,6.6-3.17,8.5-6.51l0,0c1.99-3.35,2.35-7.24,1.45-10.68c-1-3.44-3.26-6.6-6.6-8.5l0,0
				c-3.35-1.9-7.15-2.35-10.58-1.36c-3.44,0.9-6.6,3.08-8.5,6.42v0.09c-1.9,3.35-2.35,7.15-1.45,10.58
				C93.48,177.08,101.44,181.7,108.68,179.8L108.68,179.8z"/>
			<path class="st1" d="M309.6,325.9c-2.53-2.53-6.06-4.07-9.95-4.07l0,0c-3.89,0-7.33,1.54-9.86,4.07s-4.16,6.06-4.16,9.95l0,0
				c0,3.8,1.63,7.33,4.16,9.86c2.53,2.53,5.97,4.07,9.77,4.07h0.09c3.89,0,7.33-1.54,9.95-4.07
				C314.85,340.38,314.85,331.24,309.6,325.9L309.6,325.9z"/>
			<path class="st1" d="M212.89,44c-2.53-2.53-5.97-4.07-9.86-4.07l0,0c-3.89,0-7.33,1.54-9.95,4.07c-2.53,2.53-4.07,6.06-4.07,9.86
				l0,0c0,3.89,1.54,7.42,4.16,9.95c2.53,2.53,5.97,4.07,9.77,4.07h0.09c3.89,0,7.33-1.54,9.86-4.07
				C218.23,58.48,218.23,49.34,212.89,44L212.89,44z"/>
			<path class="st1" d="M166.94,310.79c1-3.44,0.54-7.24-1.36-10.58l0,0c-1.9-3.35-5.07-5.61-8.5-6.51c-3.44-1-7.33-0.54-10.68,1.36
				l0,0c-3.35,1.9-5.61,5.07-6.51,8.5c-0.9,3.44-0.54,7.24,1.36,10.58l0.09,0.09c1.9,3.35,4.98,5.52,8.5,6.51
				C157.08,322.64,165.04,318.12,166.94,310.79L166.94,310.79z"/>
			<path class="st1" d="M362.8,86.16c0.9-3.44,0.54-7.24-1.45-10.58l0,0c-1.9-3.35-4.98-5.61-8.5-6.51c-3.44-1-7.24-0.54-10.58,1.36
				l0,0c-3.35,1.9-5.61,5.07-6.51,8.5c-1,3.44-0.54,7.24,1.36,10.58v0.09c1.9,3.26,5.07,5.52,8.5,6.51
				C352.85,98.01,360.81,93.49,362.8,86.16L362.8,86.16z"/>
			<path class="st1" d="M401.16,237.06c3.44-1,6.51-3.17,8.5-6.51l0,0c1.9-3.35,2.26-7.24,1.36-10.68c-0.9-3.44-3.17-6.6-6.51-8.5
				l0,0c-3.35-1.9-7.15-2.35-10.58-1.36c-3.53,0.9-6.6,3.17-8.5,6.42l-0.09,0.09c-1.9,3.35-2.26,7.15-1.36,10.58
				C385.96,234.35,393.83,238.96,401.16,237.06L401.16,237.06z"/>
			<path class="st1" d="M290.33,130.85c-13.48,10.58-20.26,15.92-20.26,15.92c-20.26-55.91-20.99-95.35-1.99-118.24
				C314.76,60.2,322.18,94.3,290.33,130.85L290.33,130.85z"/>
			<path class="st1" d="M326.07,196.17c-16.01-6.42-23.97-9.59-23.97-9.59c38.27-45.6,72.1-65.86,101.41-60.88
				C399.44,181.97,373.66,205.49,326.07,196.17L326.07,196.17z"/>
			<path class="st1" d="M287.35,259.68c-2.44-17.01-3.71-25.51-3.71-25.51c58.62,10.4,93.09,29.49,103.4,57.36
				C336.29,316.13,303.09,305.55,287.35,259.68L287.35,259.68z"/>
			<path class="st1" d="M212.98,257.96c13.48-10.58,20.26-15.92,20.26-15.92c20.26,55.91,20.99,95.35,1.99,118.15
				C188.56,328.62,181.05,294.51,212.98,257.96L212.98,257.96z"/>
			<path class="st1" d="M177.25,192.64c15.92,6.42,23.97,9.59,23.97,9.59c-38.27,45.6-72.1,65.86-101.41,60.88
				C103.88,206.85,129.66,183.32,177.25,192.64L177.25,192.64z"/>
			<path class="st1" d="M215.97,129.13c2.44,17.01,3.62,25.51,3.62,25.51c-58.53-10.4-93-29.49-103.4-57.36
				C167.03,72.59,200.23,83.27,215.97,129.13L215.97,129.13z"/>
			<path class="st5" d="M301.91,197.8c-3.08-1.27-4.52-4.89-3.17-7.96c0.63-1.54,1.9-2.71,3.35-3.26
				c3.53-1.63,45.23-15.92,65.32-40.17c-3.44,18.55-22.35,34.65-46.32,45.14c3.53,1,6.97,1.63,10.31,2.08
				c14.02,1.81,26.78-0.45,37.63-6.88c10.86-6.51,19.9-17.28,26.33-32.3c3.53-8.32,6.33-17.91,8.14-28.77
				c-47.77-8.68-73.82,16.83-96.08,38.63c-8.87,8.68-17.28,16.92-26.24,22.53c-8.05,5.16-10.58,14.57-0.81,19.45
				c8.05,3.98,18,6.69,28.5,9.68c34.11,9.5,74.18,20.63,91.55,77.26c0.9,2.99-0.54,6.15-3.44,7.42
				c-13.39,5.52-25.96,8.96-37.45,10.31c-18.91,2.26-35.19-0.72-48.49-8.14c-13.39-7.6-23.61-19.54-30.13-35.1
				c-3.44-8.41-5.88-17.82-7.06-28.04c-0.45-3.35,1.9-6.42,5.25-6.79c1.72-0.27,3.35,0.27,4.52,1.27
				c3.17,2.26,36.46,31.21,67.49,36.46c-17.91,6.33-41.25-1.99-62.33-17.55c0.9,3.53,2.08,6.88,3.35,10.04
				c5.43,13.03,13.84,22.89,24.79,29.04c11.13,6.24,24.97,8.68,41.16,6.79c8.96-1.09,18.64-3.53,28.95-7.42
				c-16.28-45.69-51.39-55.46-81.42-63.87c-12.48-3.44-24.15-6.69-33.74-12.03c-7.6-4.16-16.74-0.54-16.19,8.96
				c0.54,9.14,3.17,19.36,5.88,30.13c8.87,34.29,19.18,74.64-21.08,117.97c-2.17,2.26-5.7,2.62-8.14,0.72
				c-11.58-8.87-20.72-18-27.68-27.32c-11.4-15.2-17.01-30.76-17.19-46.05c-0.18-15.38,5.07-30.22,15.29-43.61
				c5.52-7.24,12.48-13.93,20.81-20.17c2.71-2.08,6.51-1.54,8.5,1.18c1,1.36,1.36,3.08,1.18,4.61c-0.45,3.89-8.87,47.04,2.08,76.63
				c-14.38-12.3-18.82-36.73-15.92-62.78c-2.62,2.62-4.89,5.25-6.97,7.96c-8.59,11.22-12.94,23.43-12.85,36.01
				c0.18,12.67,4.98,25.87,14.75,38.99c5.43,7.24,12.39,14.38,20.9,21.44c31.39-37,22.35-72.37,14.57-102.5
				c-3.26-12.57-6.24-24.34-6.42-35.28c-0.18-7.69-7.6-14.75-15.29-9.86c-7.87,4.98-15.56,12.48-23.7,20.54
				c-25.24,24.79-55,53.92-112.72,40.71c-3.08-0.72-5.07-3.62-4.7-6.79c1.9-14.38,5.25-26.87,9.77-37.54
				c7.51-17.46,18.27-30.13,31.39-37.91c13.21-7.87,28.59-10.77,45.41-8.5c8.96,1.18,18.27,3.8,27.86,7.87
				c3.08,1.27,4.52,4.89,3.17,7.96c-0.63,1.54-1.9,2.71-3.35,3.26c-3.62,1.63-45.23,15.92-65.32,40.17
				c3.44-18.64,22.35-34.65,46.32-45.23c-3.53-0.9-6.97-1.54-10.31-1.99c-14.02-1.81-26.78,0.45-37.63,6.88
				c-10.86,6.51-19.9,17.28-26.33,32.21c-3.53,8.41-6.33,18-8.14,28.86c47.77,8.68,73.82-16.83,96.08-38.63
				c9.05-8.87,17.55-17.19,26.69-22.89c6.33-3.89,9.95-13.93,2.44-18c-8.5-4.61-19.18-7.6-30.58-10.77
				c-34.11-9.5-74.18-20.72-91.55-77.26c-1-2.99,0.54-6.24,3.44-7.42c13.39-5.61,25.87-8.96,37.45-10.31
				c18.82-2.26,35.19,0.72,48.49,8.14c13.39,7.51,23.61,19.45,30.13,35.1c3.44,8.32,5.88,17.73,7.06,28.05
				c0.45,3.35-1.9,6.42-5.25,6.79c-1.72,0.18-3.35-0.27-4.61-1.27c-3.08-2.26-36.37-31.21-67.4-36.55
				c17.82-6.24,41.25,2.08,62.33,17.55c-1-3.44-2.08-6.79-3.44-9.95c-5.34-13.03-13.75-22.98-24.7-29.13
				c-11.13-6.15-24.97-8.59-41.16-6.69c-8.96,1.09-18.64,3.53-29.04,7.42c16.37,45.69,51.48,55.46,81.51,63.87
				c11.58,3.17,22.44,6.24,31.66,10.86c6.79,3.44,18.64,4.16,18.36-6.24c-0.27-9.5-3.08-20.26-5.97-31.75
				c-8.87-34.2-19.18-74.55,21.08-117.97c2.17-2.26,5.7-2.53,8.14-0.63c11.58,8.78,20.72,18,27.68,27.23
				c11.4,15.2,17.01,30.85,17.19,46.14c0.18,15.38-5.07,30.13-15.38,43.61c-5.52,7.15-12.39,13.93-20.72,20.17
				c-2.71,1.99-6.51,1.45-8.5-1.18c-1-1.36-1.36-3.08-1.18-4.61c0.45-3.89,8.87-47.13-2.08-76.63
				c14.38,12.3,18.82,36.73,15.92,62.78c2.62-2.62,4.89-5.25,6.97-7.96c8.59-11.22,12.94-23.43,12.85-36.01
				c-0.18-12.76-4.98-25.96-14.75-38.99c-5.43-7.24-12.39-14.38-20.9-21.44c-31.39,37-22.35,72.28-14.57,102.5
				c3.08,11.85,5.88,23.07,6.42,33.56c0.36,9.14,6.79,17.01,15.38,11.49c7.87-5.07,15.47-12.48,23.61-20.45
				c25.24-24.79,55-53.92,112.72-40.71c3.08,0.72,5.07,3.62,4.7,6.69c-1.9,14.38-5.25,26.96-9.77,37.63
				c-7.51,17.46-18.27,30.13-31.39,37.91c-13.21,7.87-28.68,10.68-45.41,8.5C320.82,204.49,311.5,201.87,301.91,197.8L301.91,197.8z
				 M326.7,340.74c-0.18,6.79-2.99,12.94-7.42,17.37c-4.7,4.61-11.04,7.51-18.09,7.51l0,0c-7.15,0-13.48-2.89-18.09-7.51
				s-7.51-11.04-7.51-18.09l0,0c0-7.06,2.89-13.48,7.51-18.09s11.04-7.51,18.09-7.51h0.63h0.09c6.79,0.27,12.85,3.08,17.37,7.51
				c4.61,4.61,7.42,11.04,7.42,18.09V340.74L326.7,340.74z M312.41,351.23c2.8-2.89,4.61-6.88,4.61-11.22l0,0
				c0-4.34-1.81-8.32-4.7-11.22c-2.8-2.89-6.79-4.61-11.13-4.61l0,0l0,0c-4.43,0-8.41,1.72-11.22,4.61
				c-2.89,2.89-4.7,6.88-4.7,11.22l0,0c0,4.34,1.81,8.32,4.7,11.22c2.8,2.89,6.79,4.61,11.22,4.61l0,0
				C305.53,355.85,309.51,354.13,312.41,351.23L312.41,351.23z M227.64,47.35l0.09,0.09v2.08l0,0c-0.18,6.79-3.08,12.94-7.51,17.37
				c-4.25,4.25-10.13,7.06-16.65,7.42h-0.09h-1.36c-7.06,0-13.48-2.8-18.09-7.42c-4.25-4.34-7.06-10.22-7.42-16.74v-0.09V48.8
				c0-7.06,2.8-13.48,7.42-18.09c4.34-4.34,10.22-7.15,16.74-7.51h2.08c6.79,0.18,12.94,2.99,17.37,7.51
				C224.56,35.05,227.37,40.84,227.64,47.35L227.64,47.35z M213.35,60.02c6.06-6.06,6.06-16.37,0-22.44
				c-2.89-2.89-6.79-4.61-11.22-4.61l0,0c-4.34,0-8.32,1.72-11.22,4.61c-2.8,2.89-4.61,6.79-4.61,11.22l0,0
				c0,4.34,1.81,8.32,4.61,11.22c2.89,2.8,6.88,4.61,11.22,4.61l0,0C206.56,64.63,210.45,62.82,213.35,60.02L213.35,60.02z
				 M415.27,202.14c6.15,3.62,10.22,9.23,11.94,15.56c1.72,6.33,1,13.3-2.53,19.45l0,0c-3.53,6.06-9.23,10.22-15.56,11.85
				c-6.33,1.72-13.3,1-19.36-2.53l0,0c-6.15-3.53-10.22-9.23-11.94-15.47c-1.63-6.15-1-12.85,2.17-18.82l0,0l0.36-0.63
				c3.53-6.15,9.23-10.22,15.56-11.94c6.06-1.63,12.76-1,18.73,2.26h0.09L415.27,202.14z M417.8,220.23c-1-3.89-3.53-7.42-7.33-9.59
				l0,0c-3.8-2.26-8.14-2.62-12.03-1.63c-3.98,1.09-7.51,3.62-9.68,7.33v0.09c-2.17,3.71-2.62,8.05-1.54,12.03
				c1,3.89,3.53,7.42,7.33,9.59l0,0c3.8,2.17,8.14,2.62,12.03,1.63c3.98-1.09,7.51-3.62,9.68-7.42l0,0
				C418.44,228.47,418.89,224.12,417.8,220.23L417.8,220.23z M112.93,141.98L112.93,141.98l1.81,1l0.09,0.09
				c5.43,3.53,9.14,8.87,10.68,14.75c3.71,13.93-4.25,27.68-18.09,31.39c-6.33,1.63-13.3,0.9-19.36-2.62l-1.18-0.63l-0.09-0.09
				c-5.43-3.53-9.14-8.87-10.68-14.75c-1.72-6.33-1-13.3,2.53-19.45l0.63-1.18h0.09c3.62-5.52,8.96-9.14,14.84-10.77
				C100.26,138.09,106.96,138.72,112.93,141.98L112.93,141.98z M116.09,160.35c-2.17-8.23-11.22-13.39-19.36-11.22
				c-3.98,1.09-7.51,3.62-9.68,7.42l0,0c-2.17,3.8-2.62,8.05-1.54,12.03c1,3.89,3.53,7.42,7.33,9.59l0,0
				c3.8,2.17,8.14,2.62,12.03,1.63c3.98-1.09,7.51-3.62,9.68-7.42l0,0C116.73,168.58,117.18,164.24,116.09,160.35L116.09,160.35z
				 M340.18,56.58c6.15-3.53,13.12-4.25,19.45-2.53c6.33,1.63,12.03,5.79,15.56,11.85c3.53,6.15,4.25,13.12,2.53,19.45
				c-1.72,6.33-5.79,12.03-11.94,15.56l0,0c-6.15,3.53-13.12,4.25-19.36,2.53c-6.33-1.72-12.03-5.79-15.56-11.94
				c-3.53-6.06-4.25-13.12-2.53-19.36C329.96,65.81,334.12,60.11,340.18,56.58L340.18,56.58z M357.1,63.45
				c-3.89-1.09-8.23-0.63-12.03,1.54c-3.8,2.17-6.33,5.7-7.33,9.59c-1.09,3.98-0.63,8.23,1.54,12.03c2.17,3.8,5.7,6.33,9.59,7.42
				c3.98,1.09,8.32,0.63,12.03-1.54V92.4c3.8-2.17,6.33-5.7,7.42-9.59c1.09-3.89,0.63-8.23-1.63-12.03
				C364.52,66.98,360.99,64.45,357.1,63.45L357.1,63.45z M137.53,287.9c6.06-3.53,13.03-4.25,19.36-2.53
				c6.33,1.72,12.03,5.79,15.56,11.94c3.53,6.06,4.25,13.03,2.53,19.36c-1.63,6.33-5.79,12.03-11.85,15.56
				c-6.15,3.53-13.12,4.25-19.45,2.53c-6.33-1.72-12.03-5.79-15.56-11.94c-3.53-6.06-4.25-13.03-2.53-19.36
				C127.31,297.13,131.38,291.43,137.53,287.9L137.53,287.9z M154.36,294.78c-3.89-1.09-8.23-0.63-11.94,1.54
				c-3.8,2.26-6.33,5.7-7.42,9.68c-1.09,3.89-0.63,8.23,1.54,12.03c2.26,3.71,5.7,6.33,9.68,7.33c3.89,1.09,8.23,0.63,12.03-1.54
				c3.8-2.26,6.33-5.7,7.33-9.68c1.09-3.89,0.63-8.23-1.54-12.03C161.87,298.4,158.34,295.78,154.36,294.78L154.36,294.78z"/>
		</g>
		<g class="st4">
			<path class="st2" d="M463.63,304.44c-0.07-0.01-0.14-0.02-0.21-0.02c-6.07,0-23.86,38.54-33.6,55.4
				c-1.74,3.02-3.23,5.35-4.35,6.64c-16.63,19.15-35.77,33.01-57.8,41.19c-2.25,0.83-4.53,1.61-6.84,2.33
				c-11.98,3.71-24.76,5.84-38.45,6.26c21.38-13.47,44.94-39.8,44.54-66.69c-0.02-1.07-0.72-1.56-1.98-1.55
				c-12.34,0-78.2,46.37-82.91,52.71c-4.71,6.35-8.73,13.19-12.13,20.36c-4.06,8.58-7.2,17.65-9.42,27.01
				c-1.79,7.55-3.01,15.27-3.65,23.07c-2.66,32.61,4.63,66.43,20.65,93.25c11.22-32.43,36.61-52.76,63.34-73.55
				c29.45-22.89,73.38-36.06,96.84-66.13C444.39,416.1,488.96,308.37,463.63,304.44z"/>
			<path class="st2" d="M242.83,448.08c-2.22-9.36-5.36-18.43-9.42-27.01c-3.39-7.17-7.41-14-12.13-20.36
				c-4.71-6.35-70.58-52.71-82.91-52.71c-1.27,0-1.97,0.49-1.98,1.55c-0.4,26.89,23.16,53.22,44.54,66.69
				c-13.68-0.42-26.47-2.55-38.45-6.26c-2.31-0.72-4.59-1.49-6.84-2.33c-22.03-8.18-41.17-22.04-57.8-41.19
				c-1.12-1.29-2.61-3.63-4.36-6.66c-9.74-16.87-27.52-55.38-33.59-55.38c-0.07,0-0.14,0.01-0.21,0.02
				c-25.33,3.93,19.23,111.66,25.96,120.28c23.46,30.06,67.39,43.24,96.84,66.13c26.73,20.78,52.13,41.11,63.34,73.55
				c16.02-26.82,23.32-60.64,20.65-93.25C245.85,463.35,244.63,455.62,242.83,448.08z"/>
		</g>
	</g>
</g>
<g id="Layer_4" class="st3">
	<path class="st5" d="M951.9,500.4h-24.17c1.68,8.2,2.92,15.13,3.74,20.81c0.81,5.68,1.22,10.66,1.22,14.95
		c0,4.05-1.02,7.37-3.07,9.95c-2.05,2.58-4.83,4.49-8.35,5.73c-3.52,1.23-7.46,1.85-11.84,1.85c-8.43,0-14.6-1.69-18.51-5.06
		c-3.91-3.38-5.87-8.65-5.87-15.82c0-3.72,0.38-7.83,1.15-12.33c0.77-4.49,1.78-9.02,3.04-13.58h-21.37
		c-1.72,4.7-3.15,9.93-4.29,15.68c-1.14,5.75-1.71,11.23-1.71,16.45c0,9.12,1.82,17.01,5.45,23.64s8.82,11.74,15.57,15.33
		c6.75,3.58,14.81,5.38,24.17,5.38c8.15,0,15.32-1.05,21.51-3.14c6.19-2.1,11.38-5.21,15.57-9.36c4.05-4.05,7.11-9.1,9.18-15.15
		c2.07-6.05,3.11-13.13,3.11-21.23c0-4.56-0.31-9.55-0.94-14.98C954.87,514.08,953.67,507.71,951.9,500.4z"/>
	<path class="st5" d="M1009.8,496.98h-24.16c1.86,7.73,3.35,14.09,4.47,19.07c1.12,4.98,1.92,9.13,2.41,12.43
		c0.49,3.31,0.73,6.31,0.73,9.01c0,3.03-0.42,6.04-1.26,9.04c-0.84,3-2.18,5.74-4.02,8.21c-1.84,2.47-4.25,4.45-7.23,5.94
		c-2.98,1.49-6.61,2.23-10.9,2.23c-1.58,0-3.03-0.07-4.33-0.21c-1.3-0.14-2.4-0.33-3.28-0.56v26.05c0.56,0.37,1.44,0.73,2.65,1.08
		c1.21,0.35,2.63,0.63,4.26,0.84c1.63,0.21,3.33,0.31,5.1,0.31c5.59,0,10.91-1.15,15.96-3.46c5.05-2.3,9.54-5.73,13.48-10.27
		c3.93-4.54,7.03-10.21,9.29-17.01c2.26-6.8,3.39-14.67,3.39-23.61c0-6.29-0.58-12.8-1.75-19.56
		C1013.45,509.78,1011.84,503.26,1009.8,496.98z"/>
	<path class="st5" d="M1136.25,451.94L1136.25,451.94c-5.54-5.66-14.63-5.68-20.2-0.05l0,0c-5.45,5.51-5.47,14.39-0.03,19.91l0,0
		c5.57,5.66,14.71,5.64,20.25-0.05l0,0C1141.65,466.24,1141.64,457.44,1136.25,451.94z"/>
	<path class="st5" d="M1006.75,451.94L1006.75,451.94c-5.54-5.66-14.63-5.68-20.2-0.05l0,0c-5.46,5.51-5.47,14.39-0.03,19.91l0,0
		c5.57,5.66,14.71,5.64,20.25-0.05l0,0C1012.15,466.24,1012.13,457.44,1006.75,451.94z"/>
	<path class="st5" d="M919.28,451.94L919.28,451.94c-5.54-5.66-14.63-5.68-20.2-0.05l0,0c-5.46,5.51-5.47,14.39-0.03,19.91h0
		c5.57,5.66,14.71,5.64,20.25-0.05l0,0C924.68,466.24,924.67,457.44,919.28,451.94z"/>
	<path class="st5" d="M1256.96,506.79c-2.47-5.19-5.84-9.38-10.13-12.57c-4.28-3.19-9.15-4.79-14.6-4.79
		c-6.19,0-11.56,1.77-16.1,5.31c-4.54,3.54-8.49,8.2-11.84,13.97l-3.42,5.87c-1.77,3.03-3.31,5.48-4.61,7.37
		c-1.3,1.88-2.76,3.26-4.36,4.12c-1.61,0.86-3.81,1.29-6.6,1.29h-5.03c-2.29,0-4.3-0.1-6.08-0.28v-27.09h-8.52
		c-5.49,0-10.45-0.49-14.88-1.47c-4.42-0.98-8.61-2.18-12.57-3.6c-3.96-1.42-7.9-2.84-11.84-4.26c-3.94-1.42-8.11-2.62-12.54-3.6
		c-4.42-0.98-9.36-1.47-14.81-1.47c-3.87,0-7.45,0.28-10.76,0.84c-3.31,0.56-6.26,1.33-8.87,2.3v23.26c2.28-0.56,4.71-0.99,7.3-1.29
		c2.58-0.3,5.2-0.46,7.86-0.46c5.49,0,10.2,0.37,14.11,1.12c3.91,0.75,7.39,1.68,10.44,2.79c3.05,1.12,6.02,2.22,8.9,3.32
		c1.1,0.42,2.26,0.8,3.46,1.16c-1.65,0.62-3.36,1.23-5.17,1.85c-1.98,0.68-4.46,1.41-7.44,2.2c-4.14,1.12-8.56,2.03-13.23,2.72
		c-4.68,0.7-9.82,1.2-15.44,1.5c-5.6,0.3-11.85,0.45-18.76,0.45c-4.32,0-7.5-0.44-9.52-1.33c-2.03-0.88-3.33-2.4-3.91-4.54
		c-0.58-2.14-0.87-5.12-0.87-8.94v-65.37h-23.47v73.68c0,13.46,2.82,22.97,8.45,28.53c5.63,5.56,14.62,8.35,26.96,8.35
		c0.02,0,0.04,0,0.06,0c0,0,0,0,0.01,0c0,0,0,0,0.01,0c9.14,0,17.29-0.55,24.44-1.64c7.17-1.09,13.73-2.79,19.7-5.1
		c5.96-2.3,11.69-5.29,17.18-8.97c6.47-4.33,11.78-7.52,15.92-9.57c0.61-0.3,1.2-0.58,1.78-0.85c0.84,8.31,3.4,14.5,7.68,18.55
		c5.33,5.05,13.05,7.58,23.15,7.58h3.91c0.02,0,0.04,0,0.05,0c0.01,0,0.01,0,0.02,0c0.01,0,0.02,0,0.02,0
		c5.4-0.01,9.71-0.88,12.93-2.62c2.62-1.41,4.91-3.48,6.87-6.18c1.08,0.87,2.19,1.7,3.39,2.44c3.47,2.14,7.2,3.74,11.21,4.78
		c4,1.05,7.96,1.57,11.87,1.57c6.84,0,12.59-1.43,17.25-4.29c4.66-2.86,8.17-6.86,10.55-11.98c2.37-5.12,3.56-11.06,3.56-17.81
		C1260.66,517.61,1259.43,511.99,1256.96,506.79z M1237.2,528.41c-1.07,1.03-2.96,1.54-5.66,1.54c-2.61,0-5.39-0.35-8.35-1.05
		c-2.64-0.62-5.26-1.53-7.84-2.7c1.74-3.11,3.46-5.64,5.15-7.57c2.28-2.61,5.26-3.91,8.94-3.91c1.91,0,3.56,0.48,4.96,1.43
		c1.4,0.96,2.48,2.15,3.25,3.6c0.77,1.45,1.15,2.89,1.15,4.33C1238.8,525.94,1238.27,527.38,1237.2,528.41z"/>
	<path d="M2444.37,511.16v30.33h-17.73v-7.43c-2.19,5.67-6.58,8.46-13.09,8.46c-11.31,0-17.14-7.84-17.14-17.54
		c0-10.94,6.75-17.02,21.11-17.02h7.68c-0.59-4.33-3.29-6.6-8.7-6.6c-4.14,0-8.78,1.65-11.82,4.44l-6.08-15.37
		c5.4-4.13,13.59-6.4,20.77-6.4C2435.25,484.02,2444.37,492.38,2444.37,511.16z M2425.29,523.13v-3.92h-4.73
		c-4.05,0-5.83,1.65-5.83,4.75c0,2.58,1.69,4.54,4.56,4.54C2421.91,528.49,2424.27,526.84,2425.29,523.13z"/>
	<path d="M2472.65,524.16l-3.04,4.02v13.31h-19.08v-76.56h19.08v36.53l13.25-16.41h22.54l-19.08,24.45l20.6,31.99h-23.05
		L2472.65,524.16z"/>
	<path d="M2559.6,509.3v32.19h-19.08v-28.17c0-7.02-2.2-9.7-5.66-9.7c-3.88,0-7.18,2.99-7.18,11.35v26.52h-19.08v-76.56h19.08v24.66
		c3.55-3.71,8.02-5.57,13-5.57C2551.33,484.02,2559.6,491.56,2559.6,509.3z"/>
	<path d="M2611.44,511.16v30.33h-17.73v-7.43c-2.19,5.67-6.58,8.46-13.09,8.46c-11.31,0-17.14-7.84-17.14-17.54
		c0-10.94,6.75-17.02,21.11-17.02h7.68c-0.59-4.33-3.29-6.6-8.7-6.6c-4.14,0-8.78,1.65-11.82,4.44l-6.08-15.37
		c5.4-4.13,13.59-6.4,20.77-6.4C2602.32,484.02,2611.44,492.38,2611.44,511.16z M2592.36,523.13v-3.92h-4.73
		c-4.05,0-5.83,1.65-5.83,4.75c0,2.58,1.69,4.54,4.56,4.54C2588.98,528.49,2591.34,526.84,2592.36,523.13z"/>
	<path d="M2659.98,524.47v17.02h-44.07v-13.41l19.08-26h-18.41v-17.02h42.47v13.41l-19.08,26H2659.98z"/>
	<path d="M2712.49,518.69h-32.08c1.35,4.33,4.56,6.6,9.29,6.6c4.22,0,6.59-1.34,9.62-4.13l9.96,12.28
		c-4.47,5.98-10.98,9.08-20.18,9.08c-16.97,0-27.95-12.49-27.95-29.3c0-17.13,11.23-29.2,26.17-29.2c13.68,0,25.41,10.11,25.41,29.2
		C2712.74,514.87,2712.57,517.04,2712.49,518.69z M2680.07,507.45h14.86c-0.76-4.75-3.55-7.53-7.43-7.53
		C2683.53,499.91,2680.83,502.7,2680.07,507.45z"/>
	<path d="M2767.62,509.3v32.19h-19.08v-28.17c0-7.02-2.2-9.7-5.66-9.7c-3.88,0-7.18,2.99-7.18,11.35v26.52h-19.08v-56.44h18.15v5.57
		c3.63-4.44,8.53-6.6,13.93-6.6C2759.34,484.02,2767.62,491.56,2767.62,509.3z"/>
	<path d="M2373.62,541.49l-0.17-32.91l-12.83,26.41h-8.78l-12.83-25.28v31.78h-18.15v-72.23h16.38l19.25,38.49l18.74-38.49h16.38
		l0.17,72.23H2373.62z"/>
</g>
</svg>
